<svg width="204" height="204" viewBox="0 0 204 204" fill="none" xmlns="http://www.w3.org/2000/svg">
<path d="M105.643 11.4285C153.652 11.4285 192.572 50.3479 192.572 98.3572C192.572 146.366 153.652 185.286 105.643 185.286C57.6338 185.286 18.7144 146.366 18.7144 98.3572C18.7144 50.3479 57.6337 11.4285 105.643 11.4285Z" fill="#E84F33" stroke="#E84F33"/>
<path d="M99.7924 57.3037C98.6016 52.5702 94.3293 49.0603 89.226 49.0603C87.487 49.0603 85.8487 49.4776 84.3901 50.2018C82.5037 47.015 78.469 44.2544 72.0452 44.6658C66.1012 45.0465 63.6298 48.6484 62.4899 52.0997C61.7636 51.9474 61.0127 51.8652 60.2415 51.8652C54.7773 51.8652 50.2639 55.8878 49.4703 61.1307C45.3683 62.9552 42.3453 66.3906 41.2301 71.1882C39.8427 77.1569 44.3468 85.5247 52.8651 88.2267C55.864 89.1781 59.2397 87.8969 62.3223 87.0885C62.6132 87.0123 63.7662 86.705 64.849 86.4158C65.8886 86.1387 69.7858 107.497 69.903 107.964C70.1686 109.019 83.8199 107.83 83.6161 106.717C83.6161 106.717 85.9149 83.859 87.8276 84.2096C95.9533 85.6967 107.499 84.1542 108.73 72.0296C109.509 64.3656 104.738 59.4147 99.7924 57.3037Z" stroke="white" stroke-width="7.5316" stroke-miterlimit="10"/>
<path d="M109.072 144.985C116.508 143.532 146.714 141.087 163.286 116.6C170.19 106.4 172.403 92.5846 172.098 79.8251C171.953 73.7901 166.535 69.2379 160.588 70.272C148.574 72.3616 134.439 78.3226 124.15 88.6228C114.114 98.6704 108.912 113.928 107.648 128.109C107.374 131.179 107.438 134.268 107.729 137.336C108.618 146.705 109.917 156.027 111.29 165.336C111.606 167.475 109.089 168.852 107.457 167.434L88.6342 151.084C87.0956 149.748 87.8914 147.22 89.918 147.006L109.072 144.985Z" stroke="white" stroke-width="7.5316" stroke-miterlimit="10"/>
<path d="M167.511 107.978C149.965 110.277 134.068 99.3755 132.004 83.6287" stroke="white" stroke-width="7.5316" stroke-miterlimit="10"/>
</svg>
