<svg width="150" height="150" viewBox="0 0 150 150" fill="none" xmlns="http://www.w3.org/2000/svg">
<path d="M81.0197 145.759C79.22 148.023 75.3419 146.484 75.719 143.613C77.7319 128.271 97.6862 48.8039 104.527 39.3506C111.177 30.1593 119.31 31.3609 124.249 33.4512C129.05 35.483 137.565 39.5688 136.205 49.9721C134.627 62.0468 90.6452 133.65 81.0197 145.759Z" stroke="#E84F33" stroke-width="5" stroke-miterlimit="10"/>
<path d="M128.486 8.703L121.348 31.7052" stroke="#E84F33" stroke-width="5" stroke-miterlimit="10"/>
<path d="M147.523 1.56433L127.693 34.8779" stroke="#E84F33" stroke-width="5" stroke-miterlimit="10"/>
<path d="M101.516 51.5345L112.62 55.5004" stroke="#E84F33" stroke-width="5" stroke-miterlimit="10"/>
<path d="M107.068 84.8475L115.793 89.6066" stroke="#E84F33" stroke-width="5" stroke-miterlimit="10"/>
<path d="M59.3437 113.576C51.6412 129.036 30.5195 123.361 17.7979 113.034C5.07639 102.708 -4.991 80.6739 10.4349 70.3814C25.7646 60.1537 32.9088 78.1452 40.8713 84.6091C49.4025 91.5345 68.2436 95.7123 59.3437 113.576Z" stroke="#E84F33" stroke-width="5" stroke-miterlimit="10"/>
<path d="M51.441 91.7337C47.5204 98.3217 39.512 96.7528 34.0852 92.3478C28.6584 87.9428 25.7303 79.9908 31.7893 75.7816" stroke="#E84F33" stroke-width="5" stroke-miterlimit="10"/>
<path d="M75.1652 37.8541C80.8876 35.5771 84.3728 30.8319 82.9497 27.2554C81.5265 23.679 75.734 22.6255 70.0116 24.9025C64.2893 27.1795 60.8041 31.9247 62.2272 35.5012C63.6503 39.0776 69.4429 40.1311 75.1652 37.8541Z" fill="#E84F33"/>
<path d="M43.9067 35.387C44.9882 29.3234 42.7928 23.86 39.0031 23.184C35.2133 22.5081 31.2644 26.8756 30.1829 32.9392C29.1014 39.0027 31.2968 44.4662 35.0865 45.1421C38.8763 45.8181 42.8252 41.4506 43.9067 35.387Z" fill="#E84F33"/>
<path d="M70.8663 64.7976C72.4395 61.2842 68.8731 56.268 62.9004 53.5935C56.9277 50.9189 50.8105 51.5989 49.2373 55.1123C47.664 58.6256 51.2305 63.6419 57.2032 66.3164C63.1759 68.9909 69.293 68.3109 70.8663 64.7976Z" fill="#E84F33"/>
</svg>
