<svg width="150" height="150" viewBox="0 0 150 150" fill="none" xmlns="http://www.w3.org/2000/svg">
<g clip-path="url(#clip0_210_2773)">
<path d="M75 150C116.421 150 150 116.421 150 75C150 33.5786 116.421 0 75 0C33.5786 0 0 33.5786 0 75C0 116.421 33.5786 150 75 150Z" fill="#E84F33"/>
<path d="M81.9669 120.71C82.4998 119.349 81.1972 118.401 80.6445 118.835C71.2103 126.316 52.7564 124.875 45.355 117.335C42.6906 114.632 42.4932 122.645 51.2366 128.191C58.3616 132.73 66.3945 131.566 71.0129 129.829C76.0261 127.934 81.059 123.079 81.9866 120.73L81.9669 120.71Z" fill="white"/>
<path d="M129.275 57.1382C123.374 62.4672 115.262 60.6711 112.598 60.0593C111.552 59.8224 110.782 59.6645 110.21 60.375L96.2359 84.4145C96.2359 84.4145 79.8148 75.4145 71.3477 72.5724C64.1635 70.1843 56.7425 68.5264 49.2227 67.6974C49.0451 67.6974 48.5912 67.6185 48.4135 67.5395C48.4135 67.4408 54.1372 49.1843 54.1372 49.1843C54.1964 49.0066 54.3543 48.8685 54.5122 48.829C65.6833 46.2829 79.0451 49.5395 91.203 57.7303L91.3806 57.8487C91.7754 58.125 92.8214 58.7369 93.9069 58.4408C94.4793 58.2829 94.953 57.9079 95.2096 57.375C95.4859 56.8027 95.624 55.8553 94.6569 54.6711C93.9267 53.7829 93.1175 52.9145 92.2293 52.1053C88.203 48.3553 82.8543 45.4935 75.9069 43.3619C72.1767 42.2172 68.3477 41.3882 64.6372 40.579C61.499 39.8882 58.2622 39.1777 55.124 38.3093C52.203 37.4803 48.8675 36.3553 46.1833 34.3224C43.5188 32.2698 41.8412 29.4277 41.703 26.6843C41.4859 21.9474 45.9069 19.1448 50.3872 18.8487C54.2754 18.5922 58.3609 19.4803 61.8346 21.4145C61.8938 21.4343 61.953 21.4737 61.9925 21.4935C63.078 22.1053 64.1043 22.8158 65.0517 23.6053L65.1306 23.6645C65.2885 23.8027 65.4464 23.9408 65.624 24.1185L65.8412 24.3158C67.4398 25.7172 68.9201 27.3948 70.2622 29.2895C70.4793 29.6053 70.6964 29.9211 70.9135 30.2566C71.4267 31.0461 71.9004 31.8553 72.3543 32.6448C72.9464 33.7303 74.1306 34.3224 75.374 34.1053C76.5977 33.9079 77.5254 32.9803 77.7227 31.7566C78.0385 30 78.4135 28.3619 78.8477 26.8619C78.9464 26.5264 79.0451 26.2106 79.1635 25.8553C80.0912 22.9935 81.2754 20.5856 82.6964 18.7106C82.7951 18.5724 82.9135 18.4343 83.0319 18.2764C83.1109 18.1579 83.2293 18.0395 83.3477 17.8816C83.6833 17.4672 84.078 17.0724 84.5122 16.6974C84.6109 16.5987 84.7491 16.5 84.8675 16.4014C84.9662 16.3224 85.0846 16.2237 85.203 16.125L85.2425 16.0856C85.2425 16.0856 85.3214 16.0264 85.3806 16.0066C85.4201 15.9672 85.4793 15.9474 85.5188 15.9079C86.1306 15.5132 86.7425 15.1974 87.3938 14.9606C90.4135 13.875 93.7491 14.7237 95.9991 15.6119C97.2819 16.125 98.4267 16.7369 99.4135 17.4277L99.5912 17.5461C101.111 18.6316 102.256 19.9145 102.986 21.3356C103.696 22.7566 104.012 24.4737 103.992 26.9211C103.953 31.0658 101.071 36.6908 100.124 38.5264C99.9267 38.8816 99.8083 39.1579 99.7688 39.2566C99.5517 39.7698 98.999 41.1514 100.006 42.2961C101.052 43.4606 102.907 43.5 105.512 42.4145L105.789 42.2961C113.703 38.8816 120.019 39.4145 123.887 40.4803C128.17 41.6448 131.012 44.2303 131.841 47.7829C132.65 51.1185 131.545 54.9474 129.177 57.0987L129.275 57.1382Z" fill="white"/>
<path d="M52.8953 98.3684C51.6519 98.9408 50.5269 98.9605 49.4808 98.4473C48.5334 97.9934 47.9611 97.0658 47.7637 95.6644C47.5663 94.2631 47.9611 92.5658 48.9479 90.5723C50.1913 88.0263 51.5927 86.2697 53.1321 85.2829C54.6716 84.3158 56.1124 84.1381 57.4348 84.7894L57.6716 84.9079C57.2966 85.4408 56.9611 85.9934 56.6848 86.5855C56.0137 87.9671 55.6387 89.4079 55.5795 90.9079C55.5203 92.4079 55.8163 93.7894 56.4479 95.0329C55.3032 96.6908 54.1387 97.796 52.8953 98.3684ZM63.9874 90.7105C64.3821 86.921 62.1913 83.5263 59.7242 82.7565C59.7242 82.7565 60.5334 77.7434 53.9808 78.2368C51.7111 78.4144 49.5795 79.6776 47.5861 81.3947C46.8361 82.046 46.1453 82.7368 45.4742 83.5263C44.369 84.8487 43.4019 86.3684 42.5532 88.0855C42.3953 88.421 42.2177 88.7763 42.0795 89.1315C41.369 90.8289 40.9742 92.546 40.8756 94.2829C40.7374 96.375 41.1124 98.2894 42.0006 100.026C42.869 101.763 44.3098 103.105 46.2835 104.053C48.6124 105.178 51.1387 105.296 53.8624 104.349C56.2703 103.52 58.4808 102.02 60.3756 99.7302C62.4479 97.1842 63.5334 94.9934 63.9874 90.6908V90.7105Z" fill="white"/>
<path d="M79.5791 103.737C78.3357 104.309 77.2107 104.329 76.1646 103.816C75.2172 103.362 74.6449 102.434 74.4475 101.033C74.2501 99.6316 74.6449 97.9343 75.6317 95.9408C76.8751 93.3948 78.2765 91.6382 79.8159 90.6514C81.3554 89.6645 82.7962 89.5066 84.1186 90.1579L84.3554 90.2764C83.9804 90.8093 83.6449 91.3619 83.3686 91.954C82.6975 93.3356 82.3225 94.7764 82.2633 96.2764C82.2041 97.7764 82.5001 99.1579 83.1317 100.401C81.987 102.059 80.8225 103.165 79.5791 103.737ZM90.6515 96.0592C91.0462 92.2698 88.8554 88.875 86.3883 88.1053C86.3883 88.1053 87.1975 83.0921 80.6449 83.5856C78.3751 83.7632 76.2436 85.0264 74.2501 86.7435C73.5001 87.3948 72.8093 88.0856 72.1383 88.875C71.033 90.1974 70.0659 91.7171 69.2172 93.4343C69.0593 93.7698 68.8817 94.125 68.7436 94.4803C68.033 96.1777 67.6383 97.8948 67.5396 99.6316C67.4015 101.724 67.7765 103.638 68.6646 105.375C69.533 107.112 70.9738 108.454 72.9475 109.401C75.2765 110.526 77.8028 110.645 80.5265 109.697C82.9343 108.868 85.1449 107.368 87.0396 105.079C89.112 102.533 90.1975 100.342 90.6515 96.0395V96.0592Z" fill="white"/>
</g>
<defs>
<clipPath id="clip0_210_2773">
<rect width="150" height="150" fill="white"/>
</clipPath>
</defs>
</svg>
