<svg width="172" height="172" viewBox="0 0 172 172" fill="none" xmlns="http://www.w3.org/2000/svg">
<path d="M89.0713 12.2142C128.126 12.2142 159.786 43.8739 159.786 82.9281C159.786 121.983 128.126 153.643 89.0713 153.643C50.0171 153.643 18.3574 121.982 18.3574 82.9281C18.3576 43.874 50.0172 12.2145 89.0713 12.2142Z" stroke="#E84F33" stroke-width="6"/>
<path d="M89 35C101.758 35 112 45.1282 112 57.5C112 69.8718 101.758 80 89 80C76.2423 80 66 69.8718 66 57.5C66 45.1282 76.2423 35 89 35Z" stroke="#E84F33" stroke-width="6"/>
<path d="M37 133C43.9744 110.976 64.7196 95 89.2268 95C113.224 95 133.614 110.317 141 131.632" stroke="#E84F33" stroke-width="6"/>
</svg>
