<svg width="152" height="144" viewBox="0 0 152 144" fill="none" xmlns="http://www.w3.org/2000/svg">
<path d="M142.476 86.6234C135.79 117.034 108.686 139.79 76.2675 139.79C47.7226 139.79 23.2985 122.147 13.3047 97.1712" stroke="#E84F33" stroke-width="7.4821" stroke-miterlimit="10"/>
<path d="M131.723 88.2914L144.058 72L152.002 90.8277L131.723 88.2914Z" fill="#E84F33"/>
<path d="M10.0586 57.3765C16.7451 26.9664 43.8486 4.21033 76.2671 4.21033C103.797 4.21033 127.493 20.6209 138.109 44.1925" stroke="#E84F33" stroke-width="7.4821" stroke-miterlimit="10"/>
<path d="M20.8145 55.7078L8.47886 71.9999L0.535156 53.1722L20.8145 55.7078Z" fill="#E84F33"/>
<path d="M45.5684 55.7079L73.9421 70.3142L106.849 53.8605" stroke="#E84F33" stroke-width="7.4821" stroke-miterlimit="10"/>
<path d="M45.1328 54.1965V89.1185L75.6559 106.579L106.179 89.1185V54.1965L75.6559 36.7356L45.1328 54.1965Z" stroke="#E84F33" stroke-width="7.4821" stroke-miterlimit="10"/>
</svg>
