<svg width="172" height="172" viewBox="0 0 172 172" fill="none" xmlns="http://www.w3.org/2000/svg">
<path d="M89.0713 11.7142C128.402 11.7142 160.286 43.5977 160.286 82.9281C160.286 122.259 128.402 154.143 89.0713 154.143C49.7409 154.143 17.8574 122.259 17.8574 82.9281C17.8576 43.5979 49.7411 11.7145 89.0713 11.7142Z" stroke="#E84F33" stroke-width="5"/>
<path d="M84.138 48.3149C83.134 44.3239 79.5319 41.3645 75.2291 41.3645C73.7628 41.3645 72.3816 41.7164 71.1517 42.327C69.5612 39.6401 66.1595 37.3126 60.7433 37.6594C55.7317 37.9804 53.648 41.0173 52.6869 43.9272C52.0746 43.7988 51.4414 43.7295 50.7912 43.7295C46.1841 43.7295 42.3787 47.1211 41.7096 51.5416C38.251 53.0799 35.7023 55.9764 34.762 60.0215C33.5922 65.0539 37.3897 72.109 44.5719 74.3872C47.1003 75.1894 49.9465 74.1092 52.5456 73.4275C52.7908 73.3633 53.763 73.1042 54.676 72.8604C55.5525 72.6267 58.8383 90.6348 58.9372 91.0283C59.1611 91.9182 70.671 90.9156 70.4992 89.9772C70.4992 89.9772 72.4374 70.7047 74.0501 71.0002C80.9011 72.254 90.6358 70.9536 91.6739 60.7308C92.3302 54.2691 88.3082 50.0947 84.138 48.3149Z" stroke="#E84F33" stroke-width="5" stroke-miterlimit="10"/>
<path d="M91.9617 122.243C98.2318 121.017 123.699 118.955 137.672 98.3098C143.493 89.7094 145.358 78.0615 145.101 67.3035C144.98 62.2152 140.411 58.377 135.397 59.2489C125.268 61.0108 113.35 66.0367 104.675 74.7212C96.2132 83.1927 91.8269 96.0571 90.761 108.014C90.5301 110.602 90.5841 113.207 90.8298 115.793C91.5789 123.693 92.6743 131.552 93.8321 139.401C94.0981 141.205 91.9765 142.366 90.5998 141.17L74.73 127.385C73.4327 126.258 74.1037 124.127 75.8125 123.947L91.9617 122.243Z" stroke="#E84F33" stroke-width="5" stroke-miterlimit="10"/>
<path d="M141.234 91.0405C126.44 92.9788 113.037 83.7873 111.297 70.5105" stroke="#E84F33" stroke-width="5" stroke-miterlimit="10"/>
</svg>
