<svg width="172" height="141" viewBox="0 0 172 141" fill="none" xmlns="http://www.w3.org/2000/svg">
<path d="M37 3.5H124.41C127.197 3.5 129.719 5.15315 130.83 7.70892L153.007 58.7172C153.649 60.1938 154.781 61.4039 156.211 62.1436L164.716 66.5427C167.04 67.745 168.5 70.1434 168.5 72.7603V111.5C168.5 115.366 165.366 118.5 161.5 118.5H134" stroke="#E84F33" stroke-width="7"/>
<path d="M141 119C141 131.15 131.15 141 119 141C106.85 141 97 131.15 97 119C97 106.85 106.85 97 119 97C131.15 97 141 106.85 141 119Z" fill="#E84F33"/>
<path d="M156 60.5H102.5C98.634 60.5 95.5 57.366 95.5 53.5V31C95.5 27.134 98.634 24 102.5 24H105.5H137M117 119C114.6 119 41.3333 119 34.5 119M62.5 47C60.1 47 18.8333 47 12 47M31 75C28.6 75 6.83333 75 0 75" stroke="#E84F33" stroke-width="7"/>
</svg>
