<svg width="36" height="36" viewBox="0 0 36 36" fill="none" xmlns="http://www.w3.org/2000/svg">
<g clip-path="url(#clip0_93_264)">
<path d="M18 0C8.05909 0 0 8.10051 0 18.0925C0 27.1634 6.64773 34.6529 15.3098 35.9613V22.8879H10.8565V18.132H15.3098V14.9674C15.3098 9.72802 17.8495 7.4278 22.1817 7.4278C24.2566 7.4278 25.3538 7.58241 25.8734 7.65313V11.8045H22.9181C21.0788 11.8045 20.4365 13.5571 20.4365 15.5324V18.132H25.8267L25.0953 22.8879H20.4365V36C29.2222 34.8018 36 27.2514 36 18.0925C36 8.10051 27.9409 0 18 0Z" fill="white"/>
</g>
<defs>
<clipPath id="clip0_93_264">
<rect width="36" height="36" fill="white"/>
</clipPath>
</defs>
</svg>
