<svg width="37" height="36" viewBox="0 0 37 36" fill="none" xmlns="http://www.w3.org/2000/svg">
<g clip-path="url(#clip0_93_266)">
<path d="M25.7635 0H11.0363C5.1699 0 0.399902 4.77 0.399902 10.6364V25.3636C0.399902 31.23 5.1699 36 11.0363 36H25.7635C31.6299 36 36.3999 31.23 36.3999 25.3636V10.6364C36.3999 4.77 31.6299 0 25.7635 0ZM18.3999 27C13.4335 27 9.3999 22.9664 9.3999 18C9.3999 13.0336 13.4335 9 18.3999 9C23.3663 9 27.3999 13.0336 27.3999 18C27.3999 22.9664 23.3663 27 18.3999 27ZM28.2181 9.81818C27.3181 9.81818 26.5817 9.08182 26.5817 8.18182C26.5817 7.28182 27.3181 6.54545 28.2181 6.54545C29.1181 6.54545 29.8545 7.28182 29.8545 8.18182C29.8545 9.08182 29.1181 9.81818 28.2181 9.81818Z" fill="white"/>
<path d="M25.7636 18.0002C25.7636 22.0583 22.4582 25.3638 18.4 25.3638C14.3418 25.3638 11.0364 22.0583 11.0364 18.0002C11.0364 13.942 14.3418 10.6365 18.4 10.6365C22.4582 10.6365 25.7636 13.942 25.7636 18.0002Z" fill="white"/>
</g>
<defs>
<clipPath id="clip0_93_266">
<rect width="37" height="36" fill="white"/>
</clipPath>
</defs>
</svg>
