<svg width="37" height="36" viewBox="0 0 37 36" fill="none" xmlns="http://www.w3.org/2000/svg">
<g clip-path="url(#clip0_93_269)">
<path d="M18.6001 0C8.67505 0 0.600098 8.07417 0.600098 18C0.600098 27.9258 8.67505 36 18.6001 36C28.5251 36 36.6001 27.9258 36.6001 18C36.6001 8.07417 28.5251 0 18.6001 0ZM13.1218 25.8261H9.9914V14.087H13.1218V25.8261ZM11.5566 11.7391C10.6918 11.7391 9.9914 11.0387 9.9914 10.1739C9.9914 9.30913 10.6918 8.6087 11.5566 8.6087C12.4214 8.6087 13.1218 9.30913 13.1218 10.1739C13.1218 11.0387 12.4214 11.7391 11.5566 11.7391ZM27.9914 25.8261H24.861V21.913V19.9565C24.861 18.45 23.6284 17.2174 22.1218 17.2174C20.6153 17.2174 19.3827 18.45 19.3827 19.9565V25.8261H16.2523V14.087H19.3827V15.5082C20.2968 14.6301 21.5364 14.087 22.9044 14.087C25.714 14.087 27.9914 16.3643 27.9914 19.1739V25.8261Z" fill="white"/>
</g>
<defs>
<clipPath id="clip0_93_269">
<rect width="37" height="36" fill="white"/>
</clipPath>
</defs>
</svg>
