<svg width="302" height="59" viewBox="0 0 302 59" fill="none" xmlns="http://www.w3.org/2000/svg">
<g clip-path="url(#clip0_93_252)">
<path d="M98.8557 45.207C99.2142 45.2346 99.7565 45.207 100.29 44.8757C103.479 43.9096 110.76 34.4781 111.091 34.1376C111.909 33.2911 112.819 32.6102 113.922 32.4997C115.218 32.3525 117.948 32.785 118.289 34.9749C118.445 35.9503 117.489 37.0637 116.661 36.9625C116.45 36.9349 115.724 36.7876 115.54 36.9349C115.034 37.3213 114.51 37.7262 114.088 38.2323C112.764 39.7965 111.56 41.4804 110.797 43.5415C110.714 43.7532 110.622 44.0016 110.594 44.2316C110.521 44.8665 110.907 45.253 111.403 45.0506C115.926 44.0016 120.063 39.8609 124.163 36.2263C124.392 36.0423 124.604 35.7847 124.751 35.4902C125.413 34.2204 126.111 32.9874 127.104 32.0581C128.354 30.8895 129.715 30.5674 131.241 31.2115C132.234 31.6256 133.153 33.3555 133.052 34.6069C133.033 34.7633 133.079 34.9657 133.153 35.067C134.458 36.6036 134.532 38.5451 134.247 40.505C133.805 43.5507 132.509 46.0995 130.616 48.1975C129.798 49.0992 128.878 49.8354 127.784 50.1666C126.102 50.6727 124.742 50.047 123.703 48.3723C122.609 46.578 122.324 44.5905 122.6 42.4373C122.646 42.1061 122.683 41.7932 122.728 41.3608C122.554 41.4804 122.425 41.5448 122.324 41.646C118.619 45.5014 113.417 49.3385 111.698 49.7985C110.116 50.231 108.682 49.9182 107.487 48.5379C106.899 47.8662 106.623 46.9829 106.495 46.0351C106.467 45.8051 106.439 45.5567 106.393 45.2162C106.118 45.4738 105.915 45.6579 105.722 45.8603C104.417 47.1853 103.011 48.3079 101.384 48.9796C100.207 49.4857 98.9844 49.6421 97.7802 49.136C96.4013 48.5563 95.6659 47.2681 95.2338 45.6671C94.7742 43.9372 94.9029 42.1981 95.1603 40.459C95.3166 39.4377 95.8038 37.2385 96.006 36.1987C95.9325 36.3276 95.528 37.1925 95.4636 37.3213C93.4965 41.1307 91.4741 44.9034 89.0841 48.3539C88.22 49.6053 87.2732 50.7739 86.2068 51.7861C83.6513 54.1969 80.5719 52.6326 79.3676 49.6605C78.8253 48.3079 78.7609 46.8541 78.8896 45.4002C79.1654 42.2901 79.8824 39.2996 80.6086 36.3092C80.6822 35.9963 81.2521 34.34 81.2245 34.3216C81.151 34.4228 80.5902 35.5178 80.5351 35.619C78.8529 38.3611 77.1615 41.1951 75.3597 43.928C74.1647 45.7499 72.7583 47.3786 71.1036 48.63C69.4214 49.8998 67.2796 50.7463 65.5054 49.5777C64.338 48.814 64.053 47.0197 63.6945 45.4922C63.6669 45.345 63.6118 45.207 63.5474 44.9862C63.2716 45.2346 63.0326 45.4186 62.812 45.6211C60.9551 47.2589 59.0063 48.6668 56.8093 49.5133C55.9912 49.8262 55.1455 50.0562 54.2998 50.2034C53.5092 50.3506 52.9393 49.7249 52.4153 49.0992C51.4961 48.0043 51.3674 46.7253 51.6799 45.2898C52.5532 41.1491 54.3182 37.6434 57.0208 34.8185C57.894 33.9168 58.8868 33.2082 60.0543 32.9046C61.7089 32.4721 63.0602 33.153 64.1725 34.5977C64.4759 34.9841 64.7332 35.4166 65.0458 35.8767C65.1745 35.7019 65.2756 35.573 65.3767 35.435C65.7812 34.8737 66.2408 34.7173 66.8107 34.9933C67.7851 35.4718 68.5205 36.2908 68.879 37.4685C69.0261 37.947 68.9985 38.5451 68.8974 39.0328C68.5481 40.6615 68.1253 42.2533 67.73 43.8636C67.5829 44.4433 67.4542 45.0138 67.3163 45.6763C68.1253 45.5199 68.7503 45.1426 69.3387 44.7101C71.1496 43.3851 72.6847 41.692 74.0636 39.7781C76.8673 35.8859 79.3033 31.6716 81.5463 27.2825C83.4859 23.5007 85.306 19.6452 86.8595 15.6242C88.3946 11.6583 89.893 7.6741 91.6304 3.83707C92.0624 2.87091 92.5496 2.63167 93.3953 3.04574C94.2962 3.48741 94.9764 4.27874 95.3625 5.36452C95.5648 5.90741 95.4636 6.41349 95.2338 6.94718C94.002 9.85485 92.7335 12.7257 91.5752 15.6702C89.5253 20.8874 87.7971 26.2519 86.2436 31.6992C85.5266 34.2296 84.782 36.7416 84.1018 39.3088C83.3848 42.0233 82.8332 44.8021 82.6769 47.6638V48.0135C83.1366 47.9122 83.4951 47.6546 83.8444 47.3417C85.5082 45.7867 86.933 43.9464 88.1924 41.9497C91.9154 36.0791 95.2614 29.9141 98.2765 23.4915C99.7841 20.2709 102.79 13.4434 104.196 10.1217C104.601 9.17394 105.07 8.9531 105.906 9.34877C106.826 9.78124 107.487 10.5726 107.873 11.6675C108.057 12.2012 107.956 12.7073 107.726 13.2042C106.577 15.8634 102.781 26.2887 101.218 32.2421C100.326 35.619 99.5543 39.042 99.0027 42.5386C98.8741 43.3759 98.8281 44.2224 98.7454 45.069C98.7178 45.1426 98.7637 45.1886 98.8005 45.2438M125.845 46.2008C127.122 46.8449 128.685 43.6151 129.375 42.3453C130.082 41.0479 130.652 39.272 130.882 37.6986C130.993 36.9349 130.836 36.2447 130.496 35.5546C127.123 38.4899 124.935 45.7499 125.845 46.1916M54.9525 45.8143C55.0352 46.3756 56.6898 45.5567 56.7726 45.5107C59.0431 44.3789 61.3872 42.3637 63.8416 38.0206C63.8416 38.0206 63.6393 37.8182 63.3819 37.6158C62.7109 36.9533 61.5159 37.3121 60.7989 37.9194C59.7785 38.7568 57.9216 40.6799 57.223 41.7288C56.6898 42.5202 54.98 44.6089 54.9525 45.8143Z" fill="#E8EEE7"/>
<path d="M166.77 47.7925C164.269 47.0196 159.066 43.8359 156.998 41.8391C157.173 41.7655 157.301 41.7103 157.439 41.6643C158.763 41.3055 160.022 40.7718 161.236 40.0725C163.093 39.0051 166.604 36.4103 167.9 34.478C168.25 33.9627 168.332 33.4106 168.148 32.8125C167.772 31.6439 167.082 30.8158 166.154 30.3005C165.519 29.9508 165.189 30.1256 164.692 30.7329C161.585 34.4688 158.441 36.5851 156.391 37.4224C156.244 37.4776 156.106 37.5236 155.886 37.5973C155.941 37.3488 156.171 36.5759 156.217 36.4287C156.502 35.4533 156.796 34.478 157.081 33.4842C158.506 28.3774 160.188 23.3902 162.008 18.4766C163.488 14.5107 165.124 10.6369 166.99 6.91947C167.303 6.30297 167.303 5.71408 167.018 5.10678C166.604 4.18663 165.97 3.51492 165.161 3.11005C164.389 2.72359 163.892 2.95363 163.451 3.82777C160.978 8.78738 158.91 13.977 157.062 19.2955C155.472 23.8778 153.992 28.5154 152.724 33.2265C152.19 35.1865 151.749 37.1648 151.326 39.1523C150.986 40.7902 150.71 42.4557 150.462 44.1119C150.306 45.1609 150.361 46.2375 150.646 47.2496C151.051 48.6575 151.942 49.4488 153.156 49.7064C153.79 49.8353 154.093 49.4304 154.093 48.6667C154.093 47.5717 154.121 46.4675 154.213 45.3725C154.268 44.7008 154.369 43.6887 154.498 42.9985C154.7 43.4126 154.93 43.7163 155.031 43.8635C156.391 45.9062 160.206 49.5592 162.201 50.691C163.47 51.4087 164.701 51.3075 165.731 50.8934C166.623 50.5622 169.105 48.5194 166.77 47.8017" fill="#E8EEE7"/>
<path d="M136.811 44.2868C136.839 41.7288 137.345 39.7964 138.016 37.9285C138.705 36.033 140.819 30.0797 143.283 29.2975C145.333 28.8835 146.942 29.9324 147.337 32.472C147.355 32.6009 147.42 33.4198 147.465 33.3922C148.412 34.4872 148.716 35.8766 148.642 37.358C148.385 41.9404 146.528 47.0472 143.283 49.4764C142.29 50.2217 141.169 50.4794 139.992 50.0653C138.889 49.6788 138.181 48.7127 137.62 47.5809C137.041 46.4123 136.775 45.1517 136.802 44.2776M139.937 46.5411C140.066 46.5411 141.748 46.0074 143.54 42.6765C144.285 41.2963 145.075 38.8211 145.333 36.1342C145.452 35.3613 145.278 34.6712 144.919 33.9443C142.235 36.7047 138.356 46.5227 139.937 46.5411Z" fill="#E8EEE7"/>
<path d="M218.716 46.5595C219.911 46.3571 220.867 45.7866 221.75 45.0229C223.735 43.3114 225.546 41.3699 227.164 39.1707C230.942 34.0547 234.215 28.4878 237.331 22.7829C239.601 18.6146 241.587 14.2531 243.619 9.92837C243.894 9.34867 244.161 8.75978 244.455 8.18928C244.768 7.55438 245.2 7.37035 245.788 7.60959C246.625 7.95925 247.222 8.63096 247.627 9.55111C247.875 10.094 247.838 10.6001 247.581 11.1614C246.202 14.0414 244.804 16.8939 243.49 19.82C241.045 25.2121 238.94 30.779 237.23 36.5575C236.881 37.7077 236.568 38.8579 236.237 39.9897C236.191 40.1185 236.182 40.2473 236.164 40.3761C236.209 40.4037 236.246 40.4313 236.274 40.4773C236.531 40.1277 236.779 39.7872 237.046 39.456C238.839 37.2568 240.824 35.3337 243.095 33.8615C243.527 33.5854 243.996 33.3462 244.474 33.1898C245.696 32.7849 246.652 33.3738 247.479 34.4136C248.417 35.6097 248.674 37.0544 248.527 38.637C248.371 40.3761 247.81 41.9588 247.351 43.5966C247.194 44.1395 247.075 44.6916 246.891 45.3909C247.204 45.2621 247.424 45.2069 247.627 45.1057C249.254 44.3328 250.697 43.1826 252.066 41.9128C253.887 40.2197 258.814 35.5821 258.915 35.4993C259.981 34.6896 261.829 33.2174 263.281 32.9965C265.699 32.7665 267.188 34.2295 267.234 37.3672C267.252 38.6462 266.287 42.2164 262.665 43.1918C261.314 43.569 259.751 43.6058 258.097 43.1918C257.885 43.9279 257.205 46.2835 257.94 46.4859C258.988 46.5871 259.99 46.3847 261.002 46.0995C264.072 45.1977 266.894 43.5138 269.606 41.6091C271.619 40.1829 273.568 38.637 275.535 37.1188C275.709 36.99 275.838 36.7599 275.939 36.5299C276.197 35.9502 276.427 35.3613 276.675 34.7724C276.978 34.0547 277.392 33.8523 278.026 34.1283C278.863 34.478 279.46 35.1313 279.883 36.0422C280.094 36.5207 280.094 36.99 279.883 37.4961C279.506 38.3334 279.193 39.1799 278.853 40.0265C278.798 40.1553 278.78 40.2841 278.798 40.4681C278.899 40.3669 279.01 40.2657 279.111 40.1553C280.903 38.269 282.769 36.4747 284.773 34.9196C285.38 34.4412 286.005 34.0179 286.667 33.6406C288.147 32.8217 289.48 33.521 290.362 34.892C291.171 36.1434 291.208 37.5513 290.877 38.9867C290.546 40.3945 290.105 41.7655 289.728 43.1458C289.599 43.6059 289.498 44.0935 289.425 44.572C289.342 45.1793 289.425 45.2437 289.912 45.1057C291.447 44.6456 292.826 43.7715 294.122 42.7041C296.172 41.0202 297.946 38.9499 299.693 36.8704C299.748 36.7967 299.803 36.7231 299.876 36.6587C300.456 35.9686 300.952 35.895 301.467 36.4011C302.028 36.9624 302.184 37.9561 301.77 38.6186C301.458 39.1247 301.099 39.5664 300.75 40.0265C298.985 42.3268 297.174 44.572 295.078 46.4491C293.883 47.5165 292.651 48.4734 291.199 48.9519C289.949 49.366 288.846 48.9795 287.862 48.0134C286.226 46.4215 285.72 44.3512 286.207 41.9496C286.391 41.0018 286.694 40.0817 286.943 39.1431C286.961 39.0879 286.961 39.0143 286.989 38.8303C286.639 39.1155 286.354 39.3456 286.088 39.594C283.716 41.6827 281.565 44.0475 279.396 46.4123C278.421 47.4613 277.456 48.5287 276.491 49.5776C275.985 50.1205 275.59 50.2125 274.965 49.8353C274.23 49.4028 273.669 48.7403 273.375 47.8385C273.264 47.4889 273.246 47.0472 273.301 46.6699C273.549 45.2161 273.834 43.7899 274.11 42.3544C274.128 42.2992 274.11 42.2348 274.092 42.1244C273.761 42.4005 273.476 42.6397 273.172 42.8881C270.663 45.0045 268.089 46.9736 265.258 48.455C263.621 49.32 261.939 49.9917 260.128 50.0929C258.593 50.1757 257.187 49.7893 256.01 48.5379C255.403 47.8937 254.916 47.1576 254.714 46.2835C254.585 45.7038 254.585 45.0781 254.585 44.6548C254.411 44.8296 254.043 45.2161 253.868 45.3909C252.416 46.8448 250.835 48.041 249.015 48.7403C247.912 49.1728 246.799 49.3016 245.714 48.6943C244.308 47.9029 243.756 46.4399 243.646 44.7008C243.563 43.4034 243.894 42.1888 244.225 40.965C244.474 40.0909 244.713 39.2075 244.942 38.3334C244.97 38.2322 244.97 38.1218 245.016 37.8549C244.455 38.2966 243.986 38.6738 243.508 39.0787C241.44 40.8914 239.657 43.063 237.965 45.3357C237.092 46.5043 236.228 47.6821 235.355 48.8415C234.95 49.3752 234.693 49.4488 234.132 49.1728C232.836 48.5378 232.137 47.3509 231.889 45.7406C231.613 43.9555 231.889 42.2164 232.293 40.5049C232.735 38.6646 233.24 36.852 233.7 35.0393C233.728 34.9104 233.755 34.7632 233.728 34.5792C233.654 34.6988 233.571 34.8092 233.498 34.9288C231.632 37.9745 229.747 41.0294 227.633 43.8451C226.181 45.7866 224.673 47.6453 222.825 49.0531C222.108 49.596 221.345 50.0469 220.481 50.2217C218.928 50.5346 217.677 49.8169 216.685 48.4642C215.48 46.8264 215.251 44.8849 215.747 42.8421C216.436 40.0817 217.659 37.6525 219.424 35.665C220.169 34.8276 221.014 34.2019 222.035 33.9719C223.34 33.6866 224.737 34.5792 225.197 36.0146C225.28 36.2999 225.316 36.6311 225.298 36.9532C225.27 37.5237 224.884 37.8181 224.406 37.7537C224.177 37.7261 223.901 37.7813 223.699 37.9101C222.853 38.3978 222.191 39.1799 221.603 40.0265C220.5 41.5907 219.488 43.247 218.955 45.2345C218.827 45.6486 218.781 46.0811 218.707 46.5871M258.63 41.7103C262.123 41.9956 264.191 35.7018 263.125 34.708C261.958 35.4717 259.347 39.1247 258.63 41.7103Z" fill="#E8EEE7"/>
<path d="M182.057 38.0022C182.7 37.7169 183.279 37.4869 183.84 37.1832C185.504 36.3091 186.984 35.1405 188.124 33.4014C188.455 32.8953 188.832 32.8125 189.356 33.0978C190.192 33.5395 190.79 34.2756 191.139 35.2785C191.323 35.8398 191.268 36.3459 190.937 36.8152C189.788 38.5267 188.354 39.7873 186.681 40.6706C185.577 41.2503 184.41 41.646 183.261 42.1245C183.132 42.1797 183.013 42.2257 182.884 42.2809C183.886 44.296 185.596 45.7866 187.581 45.6486C188.832 45.5658 189.935 44.9861 190.955 44.1948C192.84 42.7317 194.384 40.827 195.671 38.6463C196.176 37.7997 196.241 37.3765 196.645 36.4471C196.93 35.7386 197.252 35.0485 197.564 34.3768C197.868 33.7327 198.3 33.5302 198.888 33.7603C199.725 34.0915 200.322 34.7633 200.708 35.7018C200.92 36.2079 200.883 36.7048 200.662 37.2385C199.945 38.9775 199.431 40.0817 198.796 41.8668C198.41 42.9618 198.162 44.1396 197.859 45.2898C197.813 45.4646 197.859 45.667 197.859 45.8971C198.989 45.5382 199.771 44.7285 200.515 43.8451C203.88 39.8333 206.637 35.2785 209.101 30.4569C209.974 28.7639 210.829 27.034 211.675 25.3225C211.657 25.2765 211.647 25.2397 211.629 25.2029C211.224 25.2765 208.366 25.9942 205.865 26.8592C205.516 26.9788 205.075 26.9328 204.744 26.7579C203.852 26.2795 203.218 25.4605 202.924 24.3564C202.721 23.6478 202.896 23.2614 203.484 23.0773C204.781 22.6725 208.292 21.7155 210.305 21.2923C211.335 21.0806 212.374 20.9426 213.412 20.8046C213.762 20.7586 213.991 20.6298 214.157 20.2249C215.232 17.6485 216.326 15.0813 217.42 12.514C217.981 11.2074 218.588 9.91001 219.176 8.6034C219.479 7.93169 219.911 7.71085 220.509 7.9869C221.345 8.36416 221.943 9.05427 222.329 10.0112C222.531 10.5173 222.485 11.005 222.255 11.5111C221.125 14.1151 220.003 16.7283 218.882 19.3507C218.781 19.5808 218.698 19.8108 218.578 20.1145C218.79 20.1329 218.983 20.1605 219.158 20.1605C221.024 20.1053 228.479 20.0041 231.007 21.1542C231.714 21.4671 232.413 21.872 233.047 22.378C233.461 22.7277 233.792 23.2706 234.068 23.8043C234.215 24.0803 234.215 24.5128 234.15 24.844C234.049 25.4513 233.489 25.6814 232.854 25.3869C232.238 25.1017 222.752 24.0067 220.49 24.1079C219.47 24.1539 218.45 24.2643 217.429 24.3104C217.117 24.3288 216.942 24.4576 216.813 24.8164C215.186 29.316 213.743 33.8707 212.548 38.5635C211.601 42.2901 211.224 43.7807 210.728 47.6177C210.397 50.1482 210.241 52.7246 210.37 55.2826C210.397 55.9451 210.618 56.6076 210.783 57.2517C210.93 57.7854 211.068 58.2915 210.701 58.7516C210.416 59.1012 209.809 59.1104 209.34 58.7792C208.531 58.2179 208.035 57.3253 207.676 56.3224C207.29 55.2274 207.115 54.0772 207.088 52.8994C207.005 49.8629 207.235 46.8448 207.759 43.8819C208.264 41.0203 208.43 40.4774 208.963 37.6249C208.982 37.5237 208.981 37.4133 208.936 37.2753C208.862 37.3949 208.807 37.5053 208.733 37.6249C207.143 40.689 205.488 43.7255 203.42 46.3663C202.657 47.3417 201.784 48.225 200.911 49.044C199.918 49.9641 198.796 50.1206 197.62 49.5593C196.222 48.8876 195.092 47.903 194.577 46.1363C194.467 45.7498 194.421 45.3266 194.329 44.8389C194.172 45.0229 194.044 45.1885 193.924 45.3542C193.161 46.3571 192.343 47.2681 191.378 48.0134C189.365 49.5961 187.315 49.6789 185.191 48.3447C183.555 47.3049 182.222 45.8603 181.073 44.1304C180.972 43.9832 180.889 43.8451 180.715 43.5875C180.586 44.3052 180.43 44.9125 180.365 45.529C180.292 46.5044 180.264 47.4797 180.264 48.4735C180.264 49.1084 180.034 49.412 179.501 49.3752C178.371 49.32 177.222 47.9766 177.056 46.6148C176.872 45.0229 177.056 43.4679 177.359 41.9312C178.656 35.0485 180.733 28.4694 182.994 21.9732C184.585 17.3448 186.414 12.8453 188.556 8.51138C189.043 7.53602 189.521 7.34279 190.367 7.86728C191.01 8.27214 191.534 8.86104 191.847 9.65237C192.031 10.1308 192.049 10.5909 191.801 11.0602C188.51 17.6301 186.037 24.6508 183.803 31.8096C183.215 33.7051 182.7 35.6374 182.14 37.5421C182.112 37.6433 182.094 37.7721 182.057 38.0022Z" fill="#E8EEE7"/>
<path d="M201.995 32.6561C200.901 32.6285 199.449 30.917 199.624 29.6656C199.725 28.9939 200.166 28.3406 200.561 27.7701C200.69 27.5861 201.149 27.5585 201.379 27.6689C202.354 28.129 203.144 28.8743 203.402 30.1809C203.448 30.4385 203.383 30.7606 203.301 30.9998C203.153 31.4047 202.951 31.7635 202.767 32.1316C202.593 32.4905 202.335 32.6653 201.995 32.6469" fill="#E8EEE7"/>
<path d="M28.0553 49.3293C28.1565 48.6484 27.467 48.3539 27.2648 48.6116C23.7533 52.9823 15.2227 54.2337 11.0769 51.5652C9.58768 50.6083 10.3231 54.2705 14.8642 55.8991C18.5687 57.2334 22.0986 55.8715 24.0107 54.6017C26.0973 53.2307 27.8807 50.4887 28.0553 49.3293Z" fill="#E8EEE7"/>
<path d="M43.0022 15.5413C40.8787 18.5686 36.9995 18.587 35.7218 18.5962C35.2162 18.5962 34.8577 18.5962 34.6738 18.9918L30.8038 31.3586C30.8038 31.3586 22.4203 28.9571 18.2837 28.543C14.7722 28.1933 11.2331 28.2117 7.73073 28.6074C7.64799 28.6166 7.43657 28.635 7.34464 28.6166C7.33545 28.5706 8.06165 19.6819 8.06165 19.6819C8.07085 19.5899 8.126 19.5163 8.19954 19.4795C13.0072 17.1699 19.4143 17.2712 25.7755 19.7464L25.8675 19.7832C26.0789 19.866 26.612 20.0316 27.0717 19.7924C27.3199 19.6635 27.4945 19.4427 27.5497 19.1759C27.614 18.8814 27.5864 18.4397 27.0165 17.9981C26.5937 17.6668 26.134 17.3632 25.656 17.0779C23.4406 15.7897 20.7197 15.0352 17.346 14.7867C15.5351 14.6487 13.715 14.6671 11.9409 14.6763C10.4425 14.6855 8.89817 14.6947 7.3906 14.6211C5.97497 14.5383 4.3479 14.3819 2.92307 13.7286C1.49824 13.0753 0.441102 11.9527 0.100981 10.7197C-0.487337 8.58494 1.23165 6.86426 3.23561 6.26616C4.98218 5.75088 6.92179 5.73247 8.70513 6.24776C8.7327 6.24776 8.76028 6.26616 8.78786 6.26616C9.3486 6.43179 9.88176 6.64342 10.3873 6.91027L10.4333 6.92867C10.516 6.97468 10.608 7.02068 10.7091 7.07589L10.8286 7.1403C11.7019 7.61878 12.5476 8.22608 13.3473 8.9438C13.4852 9.06342 13.6139 9.18304 13.7426 9.31186C14.0551 9.61551 14.3585 9.92836 14.6435 10.2504C15.0295 10.6829 15.6271 10.8301 16.1602 10.6001C16.6934 10.3792 17.0243 9.86395 16.9875 9.29345C16.9508 8.45612 16.9508 7.67399 16.9875 6.95627C16.9967 6.79065 17.0059 6.63422 17.0243 6.46859C17.1438 5.06997 17.438 3.85537 17.8976 2.85241C17.9344 2.77879 17.9619 2.70518 18.0079 2.62237C18.0355 2.55796 18.0722 2.49355 18.1182 2.41073C18.2285 2.1899 18.3664 1.96906 18.5227 1.74823C18.5594 1.69302 18.6054 1.63781 18.6606 1.5734C18.6973 1.52739 18.7433 1.47218 18.7893 1.41697L18.8076 1.39857C18.8076 1.39857 18.8352 1.36176 18.8536 1.35256C18.872 1.33416 18.8904 1.31576 18.9088 1.28815C19.1478 1.03971 19.396 0.837278 19.6625 0.66245C20.9219 -0.13808 22.5214 -0.101274 23.6429 0.0735541C24.2772 0.174771 24.8563 0.340398 25.3894 0.552032L25.4814 0.588838C26.2811 0.929293 26.943 1.38937 27.4118 1.95986C27.8806 2.53035 28.2023 3.27567 28.4413 4.38906C28.855 6.27536 28.1196 9.12783 27.8806 10.0664C27.8346 10.2504 27.7979 10.3884 27.7887 10.4344C27.7427 10.6921 27.6324 11.373 28.2115 11.7963C28.7999 12.2195 29.6547 12.0447 30.7211 11.281L30.8314 11.1982C34.0763 8.82418 36.9995 8.42851 38.8656 8.50212C40.9339 8.58494 42.4874 9.47748 43.232 11.0049C43.9398 12.4404 43.8387 14.2991 42.9838 15.5137L43.0022 15.5413Z" fill="#E8EEE7"/>
<path d="M12.5569 42.1612C12.0513 42.5477 11.5457 42.6765 11.0125 42.5569C10.5345 42.4465 10.176 42.0784 9.9462 41.4711C9.71639 40.8546 9.71639 40.0449 9.95539 39.0327C10.2587 37.7445 10.7092 36.806 11.3159 36.1987C11.9226 35.5914 12.5477 35.3705 13.2187 35.527L13.3382 35.5546C13.2187 35.8306 13.1268 36.1251 13.0624 36.4195C12.897 37.1188 12.8786 37.8089 13.0073 38.4991C13.136 39.1892 13.4118 39.7873 13.8254 40.2841C13.4761 41.1583 13.0624 41.784 12.5569 42.1705V42.1612ZM16.7946 37.5329C16.5924 35.7754 15.2411 34.4504 14.046 34.3584C14.046 34.3584 13.899 31.9936 10.9758 32.8953C9.95539 33.2082 9.12807 34.0087 8.39267 34.9933C8.1169 35.3613 7.8779 35.757 7.65728 36.1803C7.29877 36.8888 7.0138 37.6801 6.80238 38.5543C6.76561 38.7291 6.71965 38.9039 6.69207 39.0787C6.54499 39.9253 6.54499 40.7442 6.67368 41.5448C6.82996 42.5109 7.19765 43.3482 7.77678 44.0384C8.3559 44.7377 9.13726 45.1977 10.13 45.4278C11.3067 45.7038 12.4649 45.4922 13.6048 44.7837C14.6068 44.158 15.4617 43.2562 16.0868 42.014C16.767 40.643 17.0336 39.5296 16.7946 37.5329Z" fill="#E8EEE7"/>
<path d="M25.2242 41.8576C24.7186 42.244 24.213 42.3729 23.6798 42.2532C23.2018 42.1428 22.8433 41.7748 22.6135 41.1675C22.3837 40.551 22.3837 39.7412 22.6227 38.7291C22.9261 37.4409 23.3765 36.5023 23.9832 35.895C24.5899 35.2877 25.215 35.0669 25.886 35.2233L26.0055 35.2509C25.886 35.527 25.7941 35.8214 25.7298 36.1159C25.5643 36.8152 25.5459 37.5053 25.6746 38.1954C25.8033 38.8855 26.0791 39.4836 26.4927 39.9805C26.1434 40.8546 25.7298 41.4803 25.2242 41.8668V41.8576ZM29.4711 37.22C29.2689 35.4625 27.9176 34.1375 26.7226 34.0455C26.7226 34.0455 26.5755 31.6807 23.6523 32.5825C22.6319 32.8953 21.8046 33.6959 21.0692 34.6804C20.7934 35.0485 20.5544 35.4441 20.3338 35.8674C19.9753 36.5759 19.6903 37.3673 19.4789 38.2414C19.4421 38.4162 19.3962 38.5911 19.3686 38.7659C19.2215 39.6124 19.2215 40.4314 19.3502 41.2319C19.5065 42.198 19.8742 43.0354 20.4533 43.7255C21.0324 44.4248 21.8138 44.8849 22.8066 45.1149C23.9832 45.391 25.1414 45.1793 26.2813 44.4708C27.2833 43.8451 28.1382 42.9434 28.7633 41.7012C29.4435 40.3301 29.7101 39.226 29.4711 37.22Z" fill="#E8EEE7"/>
</g>
<defs>
<clipPath id="clip0_93_252">
<rect width="302" height="59" fill="white"/>
</clipPath>
</defs>
</svg>
