<svg width="40" height="40" viewBox="0 0 40 40" fill="none" xmlns="http://www.w3.org/2000/svg">
<circle cx="20" cy="20" r="19.5" fill="#E84F33" stroke="#E84F33"/>
<path d="M9 19.5C8.17157 19.5 7.5 20.1716 7.5 21C7.5 21.8284 8.17157 22.5 9 22.5V19.5ZM32.0607 22.0607C32.6464 21.4749 32.6464 20.5251 32.0607 19.9393L22.5147 10.3934C21.9289 9.80761 20.9792 9.80761 20.3934 10.3934C19.8076 10.9792 19.8076 11.9289 20.3934 12.5147L28.8787 21L20.3934 29.4853C19.8076 30.0711 19.8076 31.0208 20.3934 31.6066C20.9792 32.1924 21.9289 32.1924 22.5147 31.6066L32.0607 22.0607ZM9 22.5H31V19.5H9V22.5Z" fill="white"/>
</svg>
