<svg width="76" height="76" viewBox="0 0 76 76" fill="none" xmlns="http://www.w3.org/2000/svg">
<g clip-path="url(#clip0_93_61)">
<path d="M38 76C58.9868 76 76 58.9868 76 38C76 17.0132 58.9868 0 38 0C17.0132 0 0 17.0132 0 38C0 58.9868 17.0132 76 38 76Z" fill="#E84F33"/>
<path d="M41.53 61.16C41.8 60.47 41.14 59.99 40.86 60.21C36.08 64 26.73 63.27 22.98 59.45C21.63 58.08 21.53 62.14 25.96 64.95C29.57 67.25 33.64 66.66 35.98 65.78C38.52 64.82 41.07 62.36 41.54 61.17L41.53 61.16Z" fill="white"/>
<path d="M65.5001 28.9499C62.5101 31.6499 58.4001 30.7399 57.0501 30.4299C56.5201 30.3099 56.1301 30.2299 55.8401 30.5899L48.7601 42.7699C48.7601 42.7699 40.4401 38.2099 36.1501 36.7699C32.5101 35.5599 28.7501 34.7199 24.9401 34.2999C24.8501 34.2999 24.6201 34.2599 24.5301 34.2199C24.5301 34.1699 27.4301 24.9199 27.4301 24.9199C27.4601 24.8299 27.5401 24.7599 27.6201 24.7399C33.2801 23.4499 40.0501 25.0999 46.2101 29.2499L46.3001 29.3099C46.5001 29.4499 47.0301 29.7599 47.5801 29.6099C47.8701 29.5299 48.1101 29.3399 48.2401 29.0699C48.3801 28.7799 48.4501 28.2999 47.9601 27.6999C47.5901 27.2499 47.1801 26.8099 46.7301 26.3999C44.6901 24.4999 41.9801 23.0499 38.4601 21.9699C36.5701 21.3899 34.6301 20.9699 32.7501 20.5599C31.1601 20.2099 29.5201 19.8499 27.9301 19.4099C26.4501 18.9899 24.7601 18.4199 23.4001 17.3899C22.0501 16.3499 21.2001 14.9099 21.1301 13.5199C21.0201 11.1199 23.2601 9.69995 25.5301 9.54995C27.5001 9.41995 29.5701 9.86995 31.3301 10.8499C31.3601 10.8599 31.3901 10.8799 31.4101 10.8899C31.9601 11.1999 32.4801 11.5599 32.9601 11.9599L33.0001 11.9899C33.0801 12.0599 33.1601 12.1299 33.2501 12.2199L33.3601 12.3199C34.1701 13.0299 34.9201 13.8799 35.6001 14.8399C35.7101 14.9999 35.8201 15.1599 35.9301 15.3299C36.1901 15.7299 36.4301 16.1399 36.6601 16.5399C36.9601 17.0899 37.5601 17.3899 38.1901 17.2799C38.8101 17.1799 39.2801 16.7099 39.3801 16.0899C39.5401 15.1999 39.7301 14.3699 39.9501 13.6099C40.0001 13.4399 40.0501 13.2799 40.1101 13.0999C40.5801 11.6499 41.1801 10.4299 41.9001 9.47995C41.9501 9.40995 42.0101 9.33995 42.0701 9.25995C42.1101 9.19995 42.1701 9.13995 42.2301 9.05995C42.4001 8.84995 42.6001 8.64995 42.8201 8.45995C42.8701 8.40995 42.9401 8.35995 43.0001 8.30995C43.0501 8.26995 43.1101 8.21995 43.1701 8.16995L43.1901 8.14995C43.1901 8.14995 43.2301 8.11995 43.2601 8.10995C43.2801 8.08995 43.3101 8.07995 43.3301 8.05995C43.6401 7.85995 43.9501 7.69995 44.2801 7.57995C45.8101 7.02995 47.5001 7.45995 48.6401 7.90995C49.2901 8.16995 49.8701 8.47995 50.3701 8.82995L50.4601 8.88995C51.2301 9.43995 51.8101 10.0899 52.1801 10.8099C52.5401 11.5299 52.7001 12.3999 52.6901 13.6399C52.6701 15.7399 51.2101 18.5899 50.7301 19.5199C50.6301 19.6999 50.5701 19.8399 50.5501 19.8899C50.4401 20.1499 50.1601 20.8499 50.6701 21.4299C51.2001 22.0199 52.1401 22.0399 53.4601 21.4899L53.6001 21.4299C57.6101 19.6999 60.8101 19.9699 62.7701 20.5099C64.9401 21.0999 66.3801 22.4099 66.8001 24.2099C67.2101 25.8999 66.6501 27.8399 65.4501 28.9299L65.5001 28.9499Z" fill="white"/>
<path d="M26.7999 49.8401C26.1699 50.1301 25.5999 50.1401 25.0699 49.8801C24.5899 49.6501 24.2999 49.1801 24.1999 48.4701C24.0999 47.7601 24.2999 46.9001 24.7999 45.8901C25.4299 44.6001 26.1399 43.7101 26.9199 43.2101C27.6999 42.7201 28.4299 42.6301 29.0999 42.9601L29.2199 43.0201C29.0299 43.2901 28.8599 43.5701 28.7199 43.8701C28.3799 44.5701 28.1899 45.3001 28.1599 46.0601C28.1299 46.8201 28.2799 47.5201 28.5999 48.1501C28.0199 48.9901 27.4299 49.5501 26.7999 49.8401ZM32.4199 45.9601C32.6199 44.0401 31.5099 42.3201 30.2599 41.9301C30.2599 41.9301 30.6699 39.3901 27.3499 39.6401C26.1999 39.7301 25.1199 40.3701 24.1099 41.2401C23.7299 41.5701 23.3799 41.9201 23.0399 42.3201C22.4799 42.9901 21.9899 43.7601 21.5599 44.6301C21.4799 44.8001 21.3899 44.9801 21.3199 45.1601C20.9599 46.0201 20.7599 46.8901 20.7099 47.7701C20.6399 48.8301 20.8299 49.8001 21.2799 50.6801C21.7199 51.5601 22.4499 52.2401 23.4499 52.7201C24.6299 53.2901 25.9099 53.3501 27.2899 52.8701C28.5099 52.4501 29.6299 51.6901 30.5899 50.5301C31.6399 49.2401 32.1899 48.1301 32.4199 45.9501V45.9601Z" fill="white"/>
<path d="M40.3199 52.5601C39.6899 52.8501 39.1199 52.8601 38.5899 52.6001C38.1099 52.3701 37.8199 51.9001 37.7199 51.1901C37.6199 50.4801 37.8199 49.6201 38.3199 48.6101C38.9499 47.3201 39.6599 46.4301 40.4399 45.9301C41.2199 45.4301 41.9499 45.3501 42.6199 45.6801L42.7399 45.7401C42.5499 46.0101 42.3799 46.2901 42.2399 46.5901C41.8999 47.2901 41.7099 48.0201 41.6799 48.7801C41.6499 49.5401 41.7999 50.2401 42.1199 50.8701C41.5399 51.7101 40.9499 52.2701 40.3199 52.5601ZM45.9299 48.6701C46.1299 46.7501 45.0199 45.0301 43.7699 44.6401C43.7699 44.6401 44.1799 42.1001 40.8599 42.3501C39.7099 42.4401 38.6299 43.0801 37.6199 43.9501C37.2399 44.2801 36.8899 44.6301 36.5499 45.0301C35.9899 45.7001 35.4999 46.4701 35.0699 47.3401C34.9899 47.5101 34.8999 47.6901 34.8299 47.8701C34.4699 48.7301 34.2699 49.6001 34.2199 50.4801C34.1499 51.5401 34.3399 52.5101 34.7899 53.3901C35.2299 54.2701 35.9599 54.9501 36.9599 55.4301C38.1399 56.0001 39.4199 56.0601 40.7999 55.5801C42.0199 55.1601 43.1399 54.4001 44.0999 53.2401C45.1499 51.9501 45.6999 50.8401 45.9299 48.6601V48.6701Z" fill="white"/>
</g>
<defs>
<clipPath id="clip0_93_61">
<rect width="76" height="76" fill="white"/>
</clipPath>
</defs>
</svg>
