<svg width="176" height="176" viewBox="0 0 176 176" fill="none" xmlns="http://www.w3.org/2000/svg">
<path d="M91.1424 160.286C132.8 160.286 166.571 126.515 166.571 84.8572C166.571 43.1991 132.8 9.42859 91.1424 9.42859C49.4844 9.42859 15.7139 43.1991 15.7139 84.8572C15.7139 126.515 49.4844 160.286 91.1424 160.286Z" fill="#E84F33"/>
<path d="M86.0958 49.4385C85.0685 45.3547 81.3826 42.3265 76.9798 42.3265C75.4794 42.3265 74.066 42.6866 72.8076 43.3113C71.1801 40.562 67.6992 38.1803 62.1571 38.5352C57.0289 38.8636 54.8967 41.9711 53.9134 44.9487C53.2867 44.8174 52.6389 44.7465 51.9735 44.7465C47.2593 44.7465 43.3654 48.2169 42.6807 52.7402C39.1417 54.3143 36.5337 57.2782 35.5716 61.4173C34.3746 66.5667 38.2604 73.786 45.6096 76.1171C48.1968 76.9379 51.1092 75.8326 53.7687 75.1351C54.0197 75.0695 55.0144 74.8043 55.9487 74.5548C56.8456 74.3157 60.2078 92.7426 60.3089 93.1452C60.5381 94.0558 72.3156 93.0299 72.1398 92.0697C72.1398 92.0697 74.1232 72.3489 75.7733 72.6514C82.7837 73.9344 92.7447 72.6037 93.807 62.1431C94.4785 55.5311 90.363 51.2597 86.0958 49.4385Z" stroke="white" stroke-width="7.5316" stroke-miterlimit="10"/>
<path d="M94.1019 125.085C100.518 123.831 126.577 121.722 140.875 100.596C146.831 91.7957 148.74 79.8769 148.477 68.8687C148.353 63.6621 143.678 59.7346 138.547 60.6268C128.183 62.4296 115.987 67.5725 107.111 76.4589C98.4522 85.1274 93.9639 98.291 92.8732 110.525C92.6369 113.174 92.6922 115.839 92.9436 118.486C93.7101 126.569 94.831 134.611 96.0157 142.643C96.2879 144.489 94.117 145.677 92.7083 144.453L76.4694 130.347C75.142 129.194 75.8286 127.013 77.5771 126.829L94.1019 125.085Z" stroke="white" stroke-width="7.5316" stroke-miterlimit="10"/>
<path d="M144.52 93.1576C129.382 95.1409 115.667 85.7357 113.887 72.1501" stroke="white" stroke-width="7.5316" stroke-miterlimit="10"/>
</svg>
