<svg width="274" height="62" viewBox="0 0 274 62" fill="none" xmlns="http://www.w3.org/2000/svg">
<g clip-path="url(#clip0_93_42)">
<path d="M51.67 46.24C52.06 46.27 52.66 46.24 53.24 45.88C56.72 44.83 64.68 34.53 65.04 34.16C65.93 33.23 66.92 32.5 68.13 32.37C69.54 32.21 72.52 32.68 72.9 35.07C73.07 36.14 72.02 37.35 71.13 37.24C70.89 37.21 70.11 37.05 69.91 37.21C69.36 37.63 68.78 38.07 68.33 38.62C66.89 40.33 65.57 42.17 64.74 44.41C64.65 44.65 64.55 44.91 64.52 45.16C64.44 45.85 64.87 46.27 65.4 46.05C70.34 44.9 74.86 40.39 79.33 36.41C79.58 36.21 79.82 35.92 79.97 35.61C80.69 34.23 81.46 32.88 82.54 31.86C83.91 30.59 85.4 30.23 87.06 30.93C88.14 31.39 89.15 33.27 89.04 34.63C89.02 34.8 89.07 35.02 89.15 35.13C90.58 36.81 90.66 38.93 90.34 41.06C89.85 44.39 88.44 47.16 86.37 49.46C85.48 50.45 84.47 51.25 83.28 51.61C81.44 52.16 79.95 51.48 78.82 49.65C77.63 47.69 77.31 45.52 77.61 43.17C77.66 42.81 77.7 42.46 77.75 41.99C77.56 42.12 77.42 42.19 77.31 42.3C73.26 46.51 67.58 50.7 65.7 51.2C63.97 51.67 62.4 51.33 61.1 49.82C60.46 49.08 60.16 48.13 60.02 47.09C59.99 46.84 59.96 46.57 59.91 46.2C59.61 46.48 59.39 46.69 59.17 46.91C57.74 48.35 56.2 49.58 54.43 50.32C53.14 50.87 51.81 51.04 50.49 50.49C48.98 49.86 48.18 48.45 47.71 46.71C47.21 44.83 47.35 42.93 47.63 41.03C47.8 39.92 48.34 37.52 48.56 36.39C48.48 36.53 48.04 37.47 47.96 37.61C45.81 41.77 43.6 45.88 40.99 49.65C40.05 51.02 39.01 52.29 37.85 53.4C35.06 56.04 31.7 54.33 30.38 51.08C29.78 49.6 29.72 48.02 29.86 46.43C30.16 43.04 30.94 39.78 31.74 36.51C31.82 36.16 32.45 34.36 32.41 34.34C32.33 34.45 31.72 35.64 31.66 35.75C29.82 38.75 27.97 41.84 26.01 44.82C24.71 46.81 23.17 48.59 21.37 49.95C19.53 51.33 17.2 52.26 15.25 50.99C13.98 50.16 13.67 48.2 13.27 46.53C13.24 46.37 13.18 46.22 13.11 45.98C12.81 46.25 12.55 46.45 12.31 46.67C10.29 48.46 8.14997 50 5.74997 50.92C4.85997 51.27 3.92997 51.52 2.99997 51.67C2.13997 51.83 1.50997 51.15 0.939967 50.46C-0.0600328 49.27 -0.210033 47.87 0.139967 46.3C1.09997 41.78 3.02997 37.95 5.97997 34.88C6.93997 33.89 8.01997 33.12 9.28997 32.79C11.09 32.32 12.57 33.06 13.79 34.64C14.12 35.06 14.4 35.53 14.75 36.04C14.89 35.85 15 35.71 15.11 35.55C15.55 34.94 16.05 34.77 16.68 35.06C17.75 35.58 18.55 36.47 18.94 37.76C19.1 38.28 19.07 38.94 18.96 39.47C18.58 41.24 18.11 42.99 17.69 44.74C17.53 45.37 17.39 46 17.23 46.72C18.11 46.55 18.8 46.14 19.44 45.67C21.42 44.23 23.1 42.37 24.6 40.29C27.66 36.04 30.33 31.44 32.78 26.65C34.9 22.52 36.89 18.32 38.59 13.92C40.27 9.58998 41.9 5.23998 43.8 1.04998C44.27 -2.06232e-05 44.8 -0.270021 45.73 0.189979C46.72 0.679979 47.46 1.53998 47.88 2.71998C48.1 3.31998 47.99 3.86998 47.74 4.44998C46.39 7.61998 45.01 10.76 43.74 13.98C41.5 19.68 39.61 25.53 37.92 31.48C37.14 34.24 36.32 36.99 35.58 39.78C34.8 42.75 34.2 45.77 34.03 48.9V49.28C34.53 49.17 34.92 48.89 35.3 48.54C37.12 46.85 38.67 44.84 40.05 42.66C44.11 36.26 47.77 29.53 51.07 22.51C52.72 19 56 11.54 57.54 7.91998C57.98 6.87998 58.5 6.64998 59.41 7.06998C60.41 7.53998 61.14 8.39998 61.56 9.59998C61.76 10.18 61.65 10.73 61.4 11.28C60.14 14.18 56 25.56 54.29 32.06C53.32 35.75 52.47 39.48 51.87 43.3C51.73 44.21 51.68 45.14 51.59 46.06C51.56 46.14 51.61 46.19 51.65 46.25M81.16 47.32C82.56 48.03 84.27 44.5 85.02 43.11C85.79 41.7 86.42 39.75 86.67 38.04C86.8 37.21 86.62 36.46 86.25 35.7C82.56 38.9 80.18 46.83 81.17 47.31M3.69997 46.9C3.78997 47.51 5.59997 46.62 5.68997 46.57C8.16997 45.33 10.73 43.13 13.41 38.39C13.41 38.39 13.19 38.17 12.91 37.95C12.17 37.23 10.87 37.62 10.09 38.28C8.97997 39.19 6.94997 41.29 6.17997 42.44C5.59997 43.3 3.72997 45.58 3.69997 46.9Z" fill="#E84F33"/>
<path d="M125.87 49.0598C123.14 48.2098 117.46 44.7398 115.2 42.5598C115.39 42.4798 115.53 42.4198 115.69 42.3698C117.13 41.9798 118.51 41.3998 119.83 40.6298C121.85 39.4698 125.7 36.6298 127.11 34.5298C127.49 33.9698 127.58 33.3698 127.38 32.7098C126.97 31.4398 126.22 30.5298 125.2 29.9598C124.51 29.5798 124.15 29.7698 123.6 30.4298C120.21 34.5098 116.77 36.8198 114.53 37.7298C114.37 37.7898 114.22 37.8398 113.98 37.9198C114.04 37.6498 114.29 36.8098 114.34 36.6498C114.65 35.5798 114.97 34.5198 115.28 33.4298C116.83 27.8598 118.67 22.4098 120.66 17.0498C122.28 12.7198 124.07 8.49979 126.11 4.42979C126.46 3.75979 126.46 3.10979 126.14 2.44979C125.68 1.44979 124.99 0.709791 124.12 0.269791C123.27 -0.150209 122.74 0.0997907 122.25 1.04979C119.55 6.45979 117.29 12.1298 115.27 17.9398C113.53 22.9498 111.91 27.9998 110.53 33.1498C109.95 35.2798 109.46 37.4498 109.01 39.6198C108.63 41.4098 108.34 43.2298 108.07 45.0298C107.9 46.1798 107.96 47.3498 108.27 48.4498C108.71 49.9898 109.68 50.8498 111.02 51.1298C111.71 51.2698 112.04 50.8298 112.04 49.9998C112.04 48.8098 112.07 47.5998 112.17 46.4098C112.23 45.6698 112.34 44.5698 112.48 43.8198C112.7 44.2798 112.95 44.5998 113.06 44.7598C114.55 46.9898 118.71 50.9698 120.89 52.2098C122.27 52.9898 123.62 52.8798 124.75 52.4298C125.72 52.0698 128.44 49.8398 125.88 49.0598" fill="#E84F33"/>
<path d="M93.1299 45.23C93.1599 42.44 93.7099 40.33 94.4499 38.29C95.1999 36.22 97.5099 29.72 100.21 28.87C102.45 28.41 104.21 29.56 104.64 32.34C104.66 32.48 104.73 33.38 104.78 33.34C105.82 34.53 106.15 36.05 106.07 37.67C105.79 42.68 103.76 48.25 100.22 50.9C99.1399 51.72 97.9099 52 96.6299 51.54C95.4199 51.12 94.6499 50.07 94.0399 48.83C93.4099 47.56 93.1099 46.18 93.1499 45.22M96.5499 47.7C96.6899 47.7 98.5299 47.12 100.49 43.48C101.31 41.97 102.17 39.27 102.45 36.34C102.58 35.49 102.39 34.74 101.99 33.95C99.0599 36.96 94.8199 47.68 96.5399 47.7" fill="#E84F33"/>
<path d="M182.61 47.7101C183.91 47.4901 184.96 46.8601 185.92 46.0301C188.09 44.1601 190.06 42.0401 191.84 39.6401C195.97 34.0501 199.54 27.9801 202.95 21.7501C205.43 17.2001 207.59 12.4401 209.82 7.72012C210.12 7.09012 210.42 6.45012 210.73 5.82012C211.08 5.13012 211.55 4.93012 212.19 5.19012C213.1 5.57012 213.76 6.30012 214.2 7.31012C214.47 7.91012 214.44 8.46012 214.15 9.07012C212.64 12.2101 211.12 15.3301 209.68 18.5201C207.01 24.4001 204.71 30.4801 202.84 36.7901C202.46 38.0501 202.12 39.3001 201.76 40.5401C201.71 40.6801 201.7 40.8201 201.68 40.9601C201.73 40.9901 201.77 41.0201 201.81 41.0701C202.09 40.6901 202.36 40.3201 202.66 39.9601C204.62 37.5601 206.79 35.4601 209.27 33.8601C209.74 33.5601 210.26 33.3001 210.78 33.1201C212.11 32.6801 213.17 33.3201 214.06 34.4501C215.08 35.7501 215.36 37.3401 215.21 39.0601C215.04 40.9601 214.43 42.6801 213.92 44.4701C213.75 45.0701 213.62 45.6601 213.42 46.4301C213.77 46.2901 214 46.2301 214.22 46.1201C215.99 45.2701 217.58 44.0201 219.07 42.6401C221.06 40.7901 226.45 35.7401 226.56 35.6401C227.72 34.7601 229.75 33.1401 231.33 32.9101C233.97 32.6601 235.6 34.2601 235.65 37.6801C235.67 39.0801 234.61 42.9701 230.66 44.0401C229.19 44.4501 227.47 44.5001 225.67 44.0401C225.43 44.8401 224.7 47.4101 225.5 47.6301C226.65 47.7401 227.74 47.5201 228.84 47.2101C232.2 46.2201 235.27 44.3901 238.24 42.3101C240.44 40.7601 242.57 39.0601 244.72 37.4101C244.91 37.2701 245.05 37.0201 245.16 36.7701C245.44 36.1401 245.69 35.5001 245.96 34.8601C246.29 34.0801 246.74 33.8601 247.43 34.1501C248.34 34.5301 249 35.2501 249.45 36.2401C249.69 36.7601 249.69 37.2801 249.45 37.8201C249.04 38.7301 248.7 39.6601 248.32 40.5801C248.26 40.7201 248.24 40.8601 248.26 41.0701C248.37 40.9601 248.5 40.8501 248.61 40.7201C250.57 38.6601 252.61 36.7001 254.79 35.0101C255.45 34.4901 256.14 34.0201 256.86 33.6101C258.48 32.7201 259.94 33.4801 260.89 34.9801C261.77 36.3501 261.82 37.8801 261.46 39.4501C261.1 40.9901 260.61 42.4801 260.2 43.9901C260.06 44.4901 259.95 45.0301 259.87 45.5401C259.78 46.2001 259.87 46.2801 260.4 46.1201C262.08 45.6201 263.59 44.6601 265 43.5001C267.24 41.6601 269.17 39.4001 271.09 37.1301C271.15 37.0501 271.22 36.9701 271.29 36.8901C271.92 36.1401 272.47 36.0601 273.03 36.6101C273.64 37.2201 273.81 38.3001 273.36 39.0301C273.01 39.5801 272.62 40.0701 272.25 40.5701C270.32 43.0801 268.34 45.5301 266.05 47.5801C264.75 48.7401 263.4 49.7901 261.81 50.3101C260.44 50.7701 259.24 50.3401 258.17 49.2901C256.38 47.5501 255.83 45.2901 256.37 42.6701C256.57 41.6301 256.9 40.6301 257.17 39.6101C257.19 39.5501 257.19 39.4701 257.22 39.2601C256.84 39.5701 256.53 39.8201 256.23 40.0901C253.64 42.3701 251.29 44.9501 248.92 47.5301C247.85 48.6801 246.8 49.8401 245.75 50.9801C245.2 51.5801 244.76 51.6701 244.09 51.2601C243.29 50.7901 242.68 50.0701 242.35 49.0801C242.22 48.7001 242.21 48.2201 242.27 47.8101C242.54 46.2301 242.85 44.6701 243.15 43.1001C243.17 43.0401 243.15 42.9701 243.13 42.8501C242.77 43.1501 242.46 43.4201 242.13 43.6801C239.38 45.9901 236.57 48.1401 233.48 49.7501C231.69 50.6901 229.86 51.4301 227.88 51.5401C226.2 51.6301 224.66 51.2101 223.38 49.8501C222.72 49.1401 222.19 48.3401 221.97 47.3901C221.83 46.7601 221.83 46.0701 221.83 45.6201C221.64 45.8101 221.23 46.2301 221.05 46.4201C219.47 48.0001 217.74 49.3101 215.75 50.0801C214.54 50.5501 213.33 50.6901 212.14 50.0301C210.6 49.1701 210.01 47.5701 209.88 45.6701C209.79 44.2601 210.15 42.9201 210.51 41.5901C210.78 40.6301 211.04 39.6801 211.29 38.7201C211.32 38.6101 211.32 38.4801 211.37 38.2001C210.76 38.6901 210.24 39.0901 209.72 39.5301C207.46 41.5101 205.51 43.8801 203.66 46.3601C202.7 47.6301 201.76 48.9201 200.8 50.1901C200.36 50.7701 200.08 50.8501 199.47 50.5501C198.06 49.8601 197.29 48.5601 197.02 46.8001C196.72 44.8501 197.02 42.9601 197.46 41.0901C197.95 39.0801 198.5 37.1001 199 35.1301C199.03 34.9901 199.06 34.8301 199.03 34.6301C198.95 34.7601 198.86 34.8801 198.78 35.0101C196.74 38.3401 194.68 41.6601 192.38 44.7401C190.8 46.8601 189.15 48.8801 187.12 50.4201C186.34 51.0201 185.5 51.5001 184.56 51.6901C182.87 52.0401 181.5 51.2501 180.42 49.7801C179.1 47.9901 178.85 45.8701 179.4 43.6401C180.15 40.6301 181.49 37.9701 183.42 35.8101C184.24 34.9001 185.16 34.2101 186.28 33.9601C187.71 33.6501 189.23 34.6201 189.73 36.1901C189.82 36.5001 189.86 36.8601 189.84 37.2101C189.81 37.8401 189.38 38.1501 188.87 38.0901C188.62 38.0601 188.32 38.1201 188.1 38.2601C187.17 38.7901 186.45 39.6401 185.81 40.5701C184.6 42.2801 183.5 44.0801 182.92 46.2501C182.78 46.7101 182.73 47.1801 182.65 47.7301M226.22 42.4301C230.03 42.7401 232.29 35.8701 231.13 34.7901C229.86 35.6201 227 39.6101 226.22 42.4301Z" fill="#E84F33"/>
<path d="M142.56 38.3799C143.27 38.0699 143.89 37.8199 144.51 37.4899C146.33 36.5299 147.95 35.2599 149.19 33.3599C149.55 32.8099 149.96 32.7199 150.54 33.0299C151.45 33.5199 152.11 34.3199 152.49 35.4199C152.69 36.0299 152.63 36.5799 152.27 37.0999C151.01 38.9699 149.45 40.3499 147.63 41.3099C146.42 41.9399 145.15 42.3799 143.89 42.8899C143.75 42.9499 143.62 42.9999 143.48 43.0599C144.58 45.2599 146.45 46.8899 148.61 46.7299C149.98 46.6399 151.18 46.0099 152.3 45.1499C154.36 43.5499 156.05 41.4799 157.45 39.0899C158 38.1599 158.08 37.7099 158.52 36.6899C158.83 35.9199 159.18 35.1699 159.52 34.4299C159.85 33.7199 160.32 33.4999 160.96 33.7599C161.87 34.1199 162.53 34.8599 162.95 35.8799C163.19 36.4299 163.14 36.9799 162.9 37.5599C162.12 39.4599 161.55 40.6699 160.86 42.6099C160.44 43.7999 160.17 45.0899 159.84 46.3399C159.79 46.5299 159.84 46.7499 159.84 46.9999C161.08 46.6099 161.93 45.7299 162.74 44.7599C166.41 40.3799 169.42 35.4099 172.12 30.1499C173.08 28.2999 174 26.4199 174.93 24.5499C174.91 24.4999 174.9 24.4599 174.88 24.4199C174.44 24.4999 171.32 25.2799 168.59 26.2199C168.21 26.3499 167.73 26.2999 167.37 26.1099C166.4 25.5899 165.71 24.6999 165.38 23.4899C165.16 22.7199 165.35 22.2999 165.99 22.0899C167.4 21.6499 171.25 20.5999 173.44 20.1399C174.57 19.8999 175.7 19.7599 176.83 19.6099C177.21 19.5599 177.46 19.4199 177.65 18.9799C178.83 16.1699 180.02 13.3599 181.21 10.5699C181.82 9.13994 182.48 7.72994 183.12 6.29994C183.45 5.55994 183.92 5.32994 184.58 5.62994C185.49 6.03994 186.15 6.78994 186.57 7.83994C186.79 8.38994 186.74 8.91994 186.49 9.46994C185.25 12.3099 184.03 15.1699 182.8 18.0199C182.69 18.2699 182.6 18.5199 182.47 18.8499C182.71 18.8699 182.91 18.8999 183.1 18.8999C185.14 18.8399 193.28 18.7299 196.05 19.9799C196.82 20.3299 197.59 20.7599 198.28 21.3099C198.74 21.6899 199.1 22.2799 199.39 22.8599C199.55 23.1599 199.55 23.6299 199.48 23.9899C199.37 24.6499 198.76 24.8999 198.07 24.5899C197.4 24.2799 187.04 23.0799 184.56 23.1899C183.45 23.2399 182.33 23.3599 181.22 23.4099C180.87 23.4299 180.69 23.5699 180.55 23.9599C178.78 28.8699 177.19 33.8499 175.89 38.9599C174.85 43.0199 174.45 44.6599 173.9 48.8499C173.54 51.6099 173.37 54.4199 173.51 57.2099C173.54 57.9299 173.78 58.6499 173.97 59.3599C174.13 59.9399 174.28 60.4899 173.88 60.9899C173.57 61.3699 172.91 61.3799 172.39 61.0199C171.51 60.4099 170.96 59.4399 170.57 58.3399C170.15 57.1499 169.96 55.8899 169.93 54.6099C169.84 51.2999 170.09 47.9999 170.67 44.7699C171.22 41.6499 171.41 41.0499 171.99 37.9399C172.01 37.8299 172.01 37.6999 171.96 37.5599C171.88 37.6899 171.82 37.8099 171.74 37.9399C170 41.2799 168.19 44.5899 165.93 47.4799C165.1 48.5499 164.14 49.4999 163.18 50.3999C162.1 51.3999 160.87 51.5799 159.59 50.9599C158.07 50.2199 156.83 49.1599 156.26 47.2299C156.13 46.8099 156.09 46.3499 155.99 45.8199C155.82 46.0199 155.68 46.1999 155.55 46.3799C154.72 47.4799 153.82 48.4699 152.77 49.2799C150.57 51.0099 148.33 51.0999 146.01 49.6399C144.22 48.5099 142.76 46.9299 141.51 45.0399C141.4 44.8799 141.31 44.7299 141.12 44.4399C140.98 45.2199 140.81 45.8799 140.74 46.5599C140.66 47.6299 140.63 48.6899 140.63 49.7799C140.63 50.4699 140.38 50.7999 139.8 50.7699C138.56 50.7099 137.3 49.2499 137.13 47.7599C136.93 46.0199 137.13 44.3199 137.46 42.6399C138.87 35.1199 141.15 27.9499 143.61 20.8599C145.35 15.8099 147.34 10.8999 149.68 6.16994C150.21 5.09994 150.73 4.89994 151.66 5.45994C152.37 5.89994 152.93 6.53994 153.28 7.40994C153.48 7.92994 153.5 8.42994 153.23 8.94994C149.64 16.1199 146.94 23.7799 144.49 31.5899C143.85 33.6599 143.28 35.7599 142.67 37.8499C142.64 37.9599 142.62 38.0999 142.58 38.3499" fill="#E84F33"/>
<path d="M164.34 32.54C163.15 32.51 161.56 30.64 161.75 29.28C161.86 28.54 162.35 27.84 162.77 27.21C162.91 27.01 163.41 26.97 163.66 27.1C164.73 27.6 165.59 28.42 165.87 29.85C165.92 30.13 165.85 30.48 165.76 30.74C165.6 31.18 165.38 31.57 165.18 31.98C164.99 32.37 164.71 32.56 164.33 32.54" fill="#E84F33"/>
</g>
<defs>
<clipPath id="clip0_93_42">
<rect width="273.6" height="61.3" fill="white"/>
</clipPath>
</defs>
</svg>
