<svg width="147" height="122" viewBox="0 0 147 122" fill="none" xmlns="http://www.w3.org/2000/svg">
<path d="M91.3227 89.7007C91.9636 92.5623 92.7145 95.4263 92.8971 98.3532C93.2284 103.668 89.5917 107.964 86.9896 109.34C83.4096 111.234 75.5731 112.211 71.5497 112.675C51.2582 115.013 24.0343 120.685 14.9597 117.849C7.67166 115.571 5.95542 107.842 5.03491 102.228C4.76607 100.589 78.9058 90.9327 91.3227 89.7007Z" fill="#E84F33" stroke="#E84F33" stroke-width="5" stroke-miterlimit="10"/>
<path d="M82 93.9055L143.695 85" stroke="#E84F33" stroke-width="5" stroke-miterlimit="10" stroke-linecap="round"/>
<path d="M73.1729 52.7691C76.1465 54.0987 79.4888 56.2581 81.074 59.1039C84.4112 65.0933 79.621 71.6691 79.3328 71.6198C78.9324 71.5511 76.5532 69.9175 74.0089 68.6458C72.5269 71.0525 71.6988 72.7264 69.9746 74.1723C68.6066 75.3198 66.5717 76.4412 64.4278 75.6669C62.6049 75.0084 61.4581 73.1178 61.4405 71.179C61.4178 68.6526 64.5372 63.5566 64.5372 63.5566C64.5372 63.5566 59.2785 60.286 58.9178 59.4255C57.932 57.0755 64.5866 48.9307 73.1729 52.7691Z" fill="#E84F33" stroke="#E84F33" stroke-width="5" stroke-miterlimit="10"/>
<path d="M47.6063 72.5643C43.9084 74.3068 40.2082 76.0499 36.436 77.6251C35.0408 78.2076 33.6269 78.7698 32.1477 79.0846C26.6848 80.248 20.3314 80.0455 15.4101 77.4027C8.82931 73.8684 4.31355 66.9902 3 62.0059C8.40054 59.5788 15.7141 57.5345 21.4419 59.7109C34.688 64.7445 36.6941 74.1043 38.0666 76.709" stroke="#E84F33" stroke-width="5" stroke-miterlimit="10"/>
<path d="M18.9299 32.7646C22.0493 33.0482 30.6901 33.5083 33.3926 33.6155C36.166 33.7255 39.1544 32.9393 41.1134 30.9728C43.1433 28.9347 43.4564 26.0243 43.681 23.1569C35.9777 21.2715 27.9779 20.6044 20.0688 21.1881C17.3804 21.3866 14.5469 21.7905 12.4455 23.4797C9.80084 25.6051 8.94158 29.2853 8.98129 32.6784C9.00794 34.9479 9.42538 37.3223 10.849 39.0903C16.9454 46.6628 26.3229 46.0508 31.6616 45.3565L11.8404 25.6743" stroke="#E84F33" stroke-width="5" stroke-miterlimit="10"/>
<path d="M29.1093 21.7957C28.7169 24.971 28.5575 30.1328 28.5717 33.3319" stroke="#E84F33" stroke-width="5" stroke-miterlimit="10"/>
<path d="M24.6016 1C23.4673 3.83613 26.0938 6.25989 27.7051 6.93773C34.81 9.92872 42.9233 11.5822 48.1661 17.2346C50.0378 19.2528 51.45 22.334 50.0208 24.6863C48.6987 26.8621 45.7341 27.2002 43.1904 27.3029" stroke="#E84F33" stroke-width="5" stroke-miterlimit="10"/>
<path d="M89.1897 25.0322C92.912 24.3237 96.8736 22.0009 96.0541 16.8091C95.2135 11.4845 89.7393 10.1742 86.9868 11.1187C86.9902 11.0375 86.9993 10.9581 86.9993 10.8759C86.9993 7.7499 84.4431 5.06918 81.3146 5.25523C76.0706 5.56721 74.8887 10.3279 74.8552 10.1334C74.8217 9.93883 72.1345 8.98191 70.057 9.40393C67.8025 9.86225 65.9643 11.619 65.5509 13.8828C65.21 15.7489 65.7981 17.479 66.9217 18.7138C66.8145 18.7836 66.7079 18.8551 66.6052 18.9328C64.0501 20.875 63.137 24.8733 66.3693 27.908C67.0278 28.5263 67.8121 29.0175 68.6827 29.2569C71.1465 29.9341 73.4764 28.8496 75.58 27.6607C75.7093 27.5881 82.8255 38.4618 82.9401 38.6694C83.1993 39.1391 91.7652 36.2531 91.371 35.8588C91.0585 35.5463 88.6577 25.1337 89.1897 25.0322Z" stroke="#E84F33" stroke-width="5" stroke-miterlimit="10" stroke-linejoin="round"/>
</svg>
