<svg width="136" height="136" viewBox="0 0 136 136" fill="none" xmlns="http://www.w3.org/2000/svg">
<path d="M111.064 38.8132L97.4272 49.071C96.7865 49.553 96.6255 50.4365 97.0317 51.1082L97.1206 51.239C97.6347 51.9231 98.6062 52.0607 99.2896 51.5466L112.925 41.2878L114.45 43.3152L100.924 53.489H100.923C100.241 54.0029 100.103 54.9727 100.617 55.656V55.657C101.131 56.3412 102.102 56.4784 102.786 55.9646L116.312 45.7888L117.733 47.6785L100.73 60.4695C98.2996 62.2977 95.0461 62.2578 92.6851 60.5964L92.3784 60.3806L92.0854 60.615L57.5532 88.2283L57.5317 88.2458L57.5122 88.2654C56.9266 88.8509 55.997 89.1827 55.0513 89.1667C54.1083 89.1507 53.232 88.792 52.7095 88.1052C52.0773 87.2745 51.9378 86.4379 52.1499 85.6677C52.3668 84.8804 52.97 84.0958 53.9487 83.4431L53.9497 83.4441L53.9614 83.4353L90.0073 57.9148L90.3188 57.6941L90.189 57.3357C89.1903 54.5826 90.0468 51.3899 92.5073 49.5388L109.51 36.7478L111.064 38.8132Z" fill="#E84F33" stroke="#E84F33"/>
<path d="M67.9995 12.9355C71.3787 12.9355 74.4754 14.7482 76.7437 17.752C79.0121 20.7561 80.4302 24.9295 80.4302 29.5596C80.43 36.9628 76.6223 42.8256 71.8403 45.373C71.3041 45.6588 70.9252 46.1698 70.6538 46.7002C70.379 47.2375 70.1868 47.8496 70.0522 48.4131C69.917 48.9795 69.8354 49.5149 69.7876 49.9072C69.7636 50.1039 69.7485 50.2661 69.7388 50.3799C69.7339 50.4367 69.7302 50.4815 69.728 50.5127C69.7269 50.5281 69.7266 50.5403 69.7261 50.5488C69.7258 50.5531 69.7252 50.5571 69.7251 50.5596V50.5635L69.7241 50.5791V50.5947L69.9458 90.7178C69.9451 92.302 69.3202 93.1056 68.6206 93.5371C67.8817 93.9928 66.9852 94.0769 66.4243 94.0566C65.9423 94.0392 65.3424 93.8325 64.8569 93.2578C64.3706 92.682 63.9582 91.6878 63.9565 90.0264L66.3013 50.7041L66.3022 50.6924C66.3529 49.3135 66.1277 47.9387 65.6401 46.6484L65.5366 46.416C65.2661 45.8892 64.7935 45.4778 64.2075 45.3057H64.2085C58.8356 43.7248 55.5699 37.6348 55.5698 29.5596C55.5698 24.9295 56.9879 20.7561 59.2563 17.752C61.5245 14.7484 64.6205 12.9357 67.9995 12.9355Z" fill="#E84F33" stroke="#E84F33"/>
<path d="M68 133C103.899 133 133 103.899 133 68C133 32.1015 103.899 3 68 3C32.1015 3 3 32.1015 3 68C3 103.899 32.1015 133 68 133Z" stroke="#E84F33" stroke-width="6" stroke-miterlimit="10"/>
</svg>
