<svg width="121" height="139" viewBox="0 0 121 139" fill="none" xmlns="http://www.w3.org/2000/svg">
<path d="M3.82129 39.6582L57.1507 67.1118L119 36.187" stroke="#E84F33" stroke-width="6" stroke-miterlimit="10"/>
<path d="M26.8569 51.9648L85.5508 18.5156" stroke="#E84F33" stroke-width="6" stroke-miterlimit="10"/>
<path d="M58.0974 101.508C67.5641 105.295 79.9264 103.32 85.9019 99.2579C93.8924 93.8253 98.2326 84.5952 98.7293 78.224C90.805 76.0991 80.3922 74.756 73.2063 78.373C56.589 86.7365 53.6802 100.246 59.3602 121.072" fill="#E84F33"/>
<path d="M58.0974 101.508C67.5641 105.295 79.9264 103.32 85.9019 99.2579C93.8924 93.8253 98.2326 84.5952 98.7293 78.224C90.805 76.0991 80.3922 74.756 73.2063 78.373C56.589 86.7365 53.6802 100.246 59.3602 121.072" stroke="#E84F33" stroke-width="7.0656" stroke-miterlimit="10"/>
<path d="M3 36.8181V102.454L60.3686 135.272L117.738 102.454V36.8181L60.3686 4L3 36.8181Z" stroke="#E84F33" stroke-width="6" stroke-miterlimit="10"/>
<path d="M57.1202 106.422C55.8428 97.9048 64.7843 87.2585 82.6698 83" stroke="#F4EFE9" stroke-width="5"/>
</svg>
