<svg width="113" height="118" viewBox="0 0 113 118" fill="none" xmlns="http://www.w3.org/2000/svg">
<path d="M31.4822 34.665H7.0843C4.82841 34.665 3 32.8361 3 30.5807V7.0843C3 4.82841 4.82889 3 7.0843 3H31.4822C33.7381 3 35.5665 4.82889 35.5665 7.0843V30.5807C35.5665 32.8361 33.7376 34.665 31.4822 34.665Z" fill="#E84F33" stroke="#E84F33" stroke-width="5" stroke-miterlimit="10"/>
<path d="M59.1333 34.665H52.4808C50.2249 34.665 48.3965 32.8361 48.3965 30.5807V7.0843C48.3965 4.82841 50.2254 3 52.4808 3H76.8787C79.1346 3 80.963 4.82889 80.963 7.0843V34.665" stroke="#E84F33" stroke-width="5" stroke-miterlimit="10"/>
<path d="M31.4822 80.7231H7.0843C4.82841 80.7231 3 78.8942 3 76.6388V53.1429C3 50.887 4.82889 49.0586 7.0843 49.0586H31.4822C33.7381 49.0586 35.5665 50.8875 35.5665 53.1429V76.6388C35.5665 78.8942 33.7376 80.7231 31.4822 80.7231Z" fill="#E84F33" stroke="#E84F33" stroke-width="5" stroke-miterlimit="10"/>
<path d="M58.7699 68.0458C58.6586 52.778 58.5478 37.5101 58.4365 22.2423C58.4226 20.3554 58.4187 18.4123 59.1192 16.6602C59.8197 14.9081 61.4049 13.3704 63.2913 13.3176C66.5768 13.225 68.7943 16.0917 69.4482 19.3133C71.0401 27.16 70.9039 44.747 70.8876 53.3772" stroke="#E84F33" stroke-width="5" stroke-miterlimit="10"/>
<path d="M58.4133 49.0582C49.7774 47.6189 44.4999 68.2491 51.2584 80.5663C58.6469 94.0316 77.7572 102.793 97.3512 92.4776C102.9 89.5568 107.113 84.2039 108.639 78.1219C109.557 74.4636 110.229 50.0178 108.479 43.573C107.922 41.5234 106.371 38.9734 104.471 38.0234C102.552 37.0639 99.0059 37.4405 97.7546 39.9425C96.7951 41.8616 96.7951 53.3762 96.7951 53.3762C96.7951 53.3762 97.7546 37.5437 91.9974 35.1448C89.7856 34.2232 87.4112 35.8774 86.1182 37.8949C84.8253 39.9123 84.8008 45.22 84.8008 53.3762C84.8008 47.1391 85.1256 40.146 84.321 38.0234C83.5164 35.9009 81.3459 33.8859 79.151 33.3068C75.2053 32.2662 71.8469 34.665 70.8874 38.5032" stroke="#E84F33" stroke-width="5" stroke-miterlimit="10"/>
<rect x="58.5" y="95.5" width="47" height="22" fill="#E84F33" stroke="#E84F33"/>
</svg>
