<svg width="588" height="979" viewBox="0 0 588 979" fill="none" xmlns="http://www.w3.org/2000/svg">
<path d="M487.068 855.588C488.813 843.855 476.885 838.721 473.302 843.177C412.315 918.998 264.173 940.71 192.232 894.371C166.445 877.792 179.144 941.295 258.065 969.514C322.44 992.591 383.715 969.032 416.873 947.022C453.038 923.175 484.061 875.759 487.068 855.597V855.588Z" fill="white"/>
<path d="M746.612 269.601C709.676 322.15 642.386 322.438 620.284 322.54C611.558 322.54 605.255 322.633 602.053 329.326L534.865 543.885C534.67 544.173 389.238 502.197 317.493 495.021C256.608 489.006 195.045 489.303 134.346 496.089C132.99 496.284 129.203 496.571 127.653 496.284C127.458 495.504 140.064 341.356 140.064 341.356C140.259 339.806 141.131 338.45 142.394 337.866C225.873 297.82 337.079 299.565 447.599 342.516L449.251 343.194C452.936 344.651 462.247 347.557 470.193 343.389C474.463 341.161 477.461 337.374 478.528 332.63C479.689 327.59 479.113 319.932 469.32 312.273C461.95 306.555 454.004 301.218 445.668 296.372C407.182 273.973 359.961 260.987 301.406 256.624C269.993 254.294 238.293 254.489 207.558 254.786C181.576 254.981 154.721 255.176 128.544 253.82C104.019 252.465 75.7069 249.652 50.9778 238.402C26.2581 227.058 7.93408 207.574 2.02102 186.243C-8.16207 149.205 21.7003 119.342 56.5103 108.974C86.7625 99.9601 120.496 99.7651 151.426 108.686C151.908 108.779 152.391 108.974 152.883 109.076C162.574 111.981 171.885 115.666 180.712 120.224L181.492 120.614C182.95 121.394 184.5 122.164 186.245 123.232L188.38 124.392C203.501 132.635 218.242 143.199 232.101 155.712C234.431 157.745 236.659 159.88 238.989 162.108C244.419 167.343 249.655 172.866 254.603 178.399C261.295 185.964 271.664 188.387 280.975 184.507C290.183 180.729 295.901 171.808 295.326 161.82C294.648 147.376 294.648 133.805 295.418 121.292C295.613 118.479 295.808 115.768 296.096 112.761C298.231 88.5238 303.272 67.48 311.218 50.0286C311.802 48.7662 312.378 47.5037 313.056 46.0556C313.538 44.9881 314.123 43.8278 314.893 42.3704C316.834 38.4902 319.256 34.7122 321.967 30.9341C322.645 29.9687 323.424 28.9941 324.297 27.9266C324.974 27.054 325.754 26.1814 326.525 25.216L326.812 24.8261C327.1 24.5384 327.295 24.2413 327.685 23.9536C327.973 23.5637 328.363 23.2759 328.65 22.8861C332.725 18.616 337.088 15.0329 341.739 12.0253C363.646 -1.93579 391.383 -1.25816 410.774 1.84225C421.728 3.58739 431.911 6.40004 441.026 10.0853L442.577 10.6701C456.538 16.5831 467.881 24.5384 476.124 34.5173C484.265 44.4033 489.798 57.399 494.058 76.6884C501.234 109.456 488.433 158.905 484.265 175.196C483.393 178.399 482.91 180.719 482.715 181.592C481.935 186.048 480.004 197.883 490.085 205.151C500.361 212.522 515.102 209.514 533.714 196.231L535.654 194.773C591.981 153.67 642.692 146.689 675.172 148.044C711.041 149.502 737.998 164.911 750.993 191.385C763.302 216.3 761.464 248.492 746.631 269.629L746.612 269.601Z" fill="white"/>
<path d="M217.926 731.293C209.201 737.986 200.382 740.214 191.165 738.079C182.829 736.139 176.721 729.836 172.646 719.17C168.673 708.504 168.673 694.45 172.841 676.897C178.076 654.6 185.929 638.216 196.4 627.745C206.871 617.274 217.824 613.394 229.363 616.114L231.498 616.596C229.465 621.442 227.813 626.483 226.652 631.523C223.84 643.646 223.45 655.667 225.687 667.586C227.915 679.514 232.667 689.883 239.936 698.609C233.921 713.73 226.652 724.591 217.926 731.284V731.293ZM291.603 651.017C288.02 620.477 264.646 597.502 243.807 595.952C243.807 595.952 241.282 554.941 190.487 570.554C172.841 575.985 158.397 589.844 145.698 606.915C140.945 613.31 136.685 620.096 132.897 627.466C126.594 639.775 121.647 653.551 118.064 668.672C117.386 671.68 116.708 674.78 116.226 677.788C113.701 692.427 113.608 706.676 115.938 720.544C118.648 737.318 125.053 751.761 135.042 763.783C145.03 775.906 158.694 783.944 175.96 787.927C196.316 792.679 216.488 788.994 236.269 776.676C253.72 765.815 268.554 750.109 279.313 728.685C291.139 704.838 295.697 685.641 291.622 651.026L291.603 651.017Z" fill="white"/>
<path d="M437.907 725.965C429.182 732.658 420.363 734.886 411.146 732.75C402.81 730.81 396.702 724.507 392.627 713.842C388.654 703.176 388.654 689.122 392.822 671.568C398.057 649.271 405.91 632.887 416.381 622.417C426.852 611.946 437.805 608.066 449.344 610.785L451.479 611.268C449.446 616.114 447.793 621.154 446.633 626.195C443.821 638.318 443.431 650.339 445.668 662.258C447.896 674.186 452.648 684.555 459.917 693.281C453.901 708.402 446.633 719.263 437.907 725.956V725.965ZM511.593 645.586C508.01 615.046 484.636 592.072 463.797 590.521C463.797 590.521 461.272 549.511 410.477 565.124C392.831 570.554 378.387 584.413 365.688 601.484C360.936 607.88 356.675 614.666 352.887 622.036C346.585 634.345 341.637 648.12 338.054 663.242C337.376 666.249 336.698 669.35 336.216 672.357C333.691 686.996 333.598 701.245 335.928 715.113C338.639 731.887 345.044 746.331 355.032 758.352C365.02 770.475 378.684 778.514 395.95 782.496C416.307 787.249 436.478 783.564 456.25 771.246C473.701 760.385 488.535 744.679 499.294 723.254C511.12 699.407 515.678 680.303 511.603 645.595L511.593 645.586Z" fill="white"/>
</svg>
