<svg width="102" height="102" viewBox="0 0 102 102" fill="none" xmlns="http://www.w3.org/2000/svg">
<g clip-path="url(#clip0_93_118)">
<path d="M66.7061 2.29679L70.302 3.60416L69.8775 4.77159L67.7079 3.98276L66.7008 6.75263L68.4024 7.37128L67.994 8.49465L66.2924 7.876L64.7127 12.2208L63.2865 11.7023L66.7061 2.29679Z" fill="#004839"/>
<path d="M71.397 4.10141L72.872 4.83298C73.0785 4.93538 73.2999 5.06044 73.5362 5.20817C73.7725 5.3559 73.9914 5.53425 74.193 5.74323C74.3963 5.94871 74.5534 6.19452 74.6644 6.48066C74.7771 6.7633 74.8158 7.09422 74.7803 7.47342C74.7501 7.85086 74.6143 8.28279 74.3731 8.76922L74.2611 8.99494C73.5947 10.3387 72.7618 11.0026 71.7625 10.9867L71.4593 15.3034L70.0106 14.5849L70.4406 10.6188L69.9734 10.3871L68.3098 13.7414L66.9503 13.0671L71.397 4.10141ZM70.6387 9.49403C71.1357 9.74049 71.5341 9.79423 71.8342 9.65526C72.1377 9.51801 72.4387 9.14844 72.7372 8.54653L73.0887 7.83788C73.3178 7.37595 73.3969 6.99224 73.3261 6.68676C73.2587 6.38301 72.9661 6.1027 72.4481 5.84582L72.2697 5.7573L70.4603 9.40551L70.6387 9.49403Z" fill="#004839"/>
<path d="M77.0012 7.0796L80.2159 9.15452L79.5677 10.1588L77.6281 8.90687L76.0044 11.4225L77.5256 12.4044L76.8774 13.4086L75.3562 12.4268L73.4973 15.3067L75.437 16.5587L74.7888 17.563L71.5741 15.4881L77.0012 7.0796Z" fill="#004839"/>
<path d="M75.8493 15.8711C75.9842 15.7039 76.1184 15.5562 76.2519 15.428C76.3884 15.3023 76.5415 15.1748 76.711 15.0455L77.6277 15.7849L77.3481 16.1315C77.0096 16.5511 76.8135 16.9249 76.7598 17.2529C76.7084 17.5778 76.815 17.847 77.0795 18.0604C77.5356 18.4282 77.9439 18.3887 78.3044 17.9418C78.4442 17.7684 78.5533 17.5554 78.6318 17.3025C78.7134 17.0521 78.7578 16.7015 78.7651 16.2507L78.7808 13.7114C78.7905 13.2575 78.8474 12.8417 78.9514 12.4639C79.0585 12.0885 79.2505 11.7291 79.5277 11.3855C79.9446 10.8686 80.4451 10.5747 81.0292 10.5039C81.6188 10.4324 82.1979 10.626 82.7665 11.0846C83.2256 11.4549 83.5184 11.8292 83.645 12.2073C83.7741 12.5824 83.79 12.939 83.6929 13.2772C83.5988 13.6179 83.445 13.9205 83.2317 14.185C83.0968 14.3522 82.958 14.4962 82.8154 14.6171C82.6783 14.7373 82.5243 14.8691 82.3535 15.0124L81.4414 14.2766L81.7431 13.9026C82.0741 13.4922 82.2638 13.1232 82.3121 12.7958C82.3604 12.4684 82.2629 12.2066 82.0197 12.0104C81.7977 11.8314 81.5787 11.7576 81.3626 11.7891C81.152 11.82 80.9634 11.9388 80.7966 12.1455C80.6544 12.3219 80.5609 12.5124 80.5161 12.7172C80.4738 12.919 80.4476 13.1413 80.4375 13.384L80.405 16.2335C80.3949 16.7624 80.3363 17.227 80.2292 17.6274C80.1275 18.0272 79.932 18.4064 79.6426 18.7652C79.2085 19.3034 78.6922 19.592 78.0935 19.6311C77.4974 19.6671 76.9135 19.4546 76.3419 18.9935C75.8737 18.6159 75.5695 18.2401 75.4295 17.8661C75.295 17.4916 75.2747 17.1341 75.3688 16.7934C75.466 16.4552 75.6261 16.1478 75.8493 15.8711Z" fill="#004839"/>
<path d="M85.6664 13.7142L86.7217 14.8047L83.7111 17.7181L84.962 19.0108L87.9726 16.0974L89.028 17.188L81.8362 24.1475L80.7809 23.0569L84.1031 19.842L82.8521 18.5494L79.53 21.7643L78.4746 20.6737L85.6664 13.7142Z" fill="#004839"/>
<path d="M90.1423 18.6069L91.0685 19.8091L84.0874 25.1872L85.3497 26.8257L84.4027 27.5552L82.2143 24.7145L90.1423 18.6069Z" fill="#004839"/>
<path d="M87.6424 26.2293L92.0524 21.0712L92.8788 22.3579L89.4433 25.9432L89.4813 26.0023L94.1707 24.3695L94.9939 25.6513L88.4625 27.5062L85.5093 29.4029L84.6892 28.1259L87.6424 26.2293Z" fill="#004839"/>
<path d="M88.3145 35.1808C88.2193 34.9581 88.1472 34.7001 88.0982 34.4066C88.0508 34.1168 88.0787 33.8096 88.1821 33.485C88.2855 33.1604 88.5096 32.8351 88.8546 32.5092C89.2032 32.1818 89.7222 31.8706 90.4118 31.5757L93.6713 30.1821C94.2244 29.9456 94.7057 29.7993 95.115 29.7432C95.5295 29.6892 95.8816 29.698 96.1714 29.7695C96.4662 29.8431 96.7105 29.9575 96.9043 30.1125C97.1032 30.2696 97.2618 30.4419 97.3801 30.6292C97.5035 30.8185 97.6021 30.9994 97.6758 31.1718C97.8786 31.6459 97.951 32.0589 97.8933 32.4107C97.8355 32.7625 97.683 33.0614 97.4355 33.3074C97.1932 33.5555 96.8943 33.7555 96.5387 33.9075C96.3411 33.992 96.1511 34.0542 95.9684 34.094C95.7909 34.1359 95.5932 34.1801 95.3751 34.2266L94.9144 33.1491L95.3562 32.9602C96.3655 32.5287 96.7688 32.0758 96.566 31.6017C96.457 31.3467 96.262 31.1986 95.9809 31.1573C95.705 31.1181 95.2725 31.2244 94.6835 31.4763L90.5351 33.25C89.964 33.4942 89.6027 33.7273 89.4512 33.9492C89.3012 34.1748 89.2869 34.4294 89.4082 34.7132C89.4927 34.9107 89.6452 35.0388 89.8657 35.0975C90.0898 35.1546 90.3868 35.1041 90.7567 34.9459L91.6295 34.5727L92.1524 35.7957L91.3012 36.1597C90.5649 36.4745 89.9491 36.5445 89.4537 36.3697C88.9584 36.1949 88.5787 35.7986 88.3145 35.1808Z" fill="#004839"/>
<path d="M89.7872 39.4972C89.7196 39.2646 89.6792 38.9997 89.6661 38.7025C89.654 38.4091 89.7189 38.1075 89.8607 37.7978C90.0025 37.4881 90.2643 37.1923 90.6462 36.9104C91.0317 36.6275 91.5846 36.3813 92.3048 36.172L95.7088 35.1824C96.2864 35.0144 96.7818 34.9274 97.1949 34.9212C97.6129 34.9176 97.9614 34.9689 98.2403 35.0749C98.5242 35.1836 98.7529 35.3266 98.9264 35.5039C99.1049 35.6839 99.2421 35.8759 99.338 36.0799C99.4376 36.2828 99.5136 36.4743 99.566 36.6543C99.6161 36.8269 99.6549 37.0231 99.6822 37.243C99.7106 37.4666 99.6991 37.6998 99.6476 37.9425C99.5999 38.1842 99.4867 38.4246 99.3081 38.6636C99.1305 38.9065 98.8638 39.1365 98.508 39.3539C98.1533 39.575 97.6815 39.7711 97.0926 39.9423L93.6886 40.9319C92.9759 41.1391 92.3817 41.2223 91.9062 41.1816C91.4306 41.1409 91.0475 41.0265 90.7568 40.8384C90.47 40.6493 90.2517 40.43 90.1019 40.1807C89.9532 39.9351 89.8483 39.7072 89.7872 39.4972ZM90.9294 39.1651C91.0134 39.454 91.1843 39.6361 91.4422 39.7117C91.7001 39.7872 92.1273 39.7383 92.7237 39.5649L97.056 38.3054C97.6712 38.1266 98.073 37.9345 98.2615 37.7292C98.4537 37.5228 98.5078 37.2752 98.4238 36.9864C98.3377 36.6901 98.1576 36.5044 97.8836 36.4295C97.6145 36.3572 97.1723 36.4105 96.5571 36.5894L92.2248 37.8488C91.6284 38.0222 91.2416 38.2099 91.0644 38.412C90.8882 38.6178 90.8433 38.8688 90.9294 39.1651Z" fill="#004839"/>
<path d="M90.8726 44.6649C90.8358 44.4255 90.8302 44.1576 90.8559 43.8613C90.8821 43.5687 90.9857 43.2782 91.1666 42.9895C91.3476 42.7009 91.6457 42.4417 92.0609 42.212C92.48 41.9816 93.0602 41.8096 93.8015 41.6957L97.3054 41.1577C97.9 41.0664 98.4025 41.0445 98.8129 41.0922C99.2278 41.1431 99.5666 41.2392 99.8294 41.3807C100.097 41.5254 100.305 41.697 100.454 41.8954C100.607 42.0971 100.718 42.3053 100.787 42.52C100.859 42.7342 100.91 42.9339 100.938 43.1193C100.965 43.2969 100.978 43.4964 100.977 43.718C100.976 43.9434 100.934 44.1731 100.851 44.4071C100.773 44.6405 100.629 44.8641 100.421 45.0779C100.213 45.2955 99.9188 45.4889 99.5378 45.6581C99.1573 45.8311 98.6639 45.9642 98.0578 46.0573L94.5539 46.5953C93.8203 46.708 93.2204 46.7131 92.7542 46.6109C92.2879 46.5086 91.923 46.3453 91.6593 46.121C91.3995 45.8961 91.2116 45.6503 91.0955 45.3835C90.9801 45.1207 90.9058 44.8811 90.8726 44.6649ZM92.0482 44.4844C92.0939 44.7817 92.2397 44.9846 92.4855 45.093C92.7314 45.2015 93.1613 45.2086 93.7752 45.1143L98.2346 44.4295C98.8678 44.3323 99.2912 44.1942 99.5048 44.0152C99.7223 43.8355 99.8082 43.5971 99.7625 43.2998C99.7157 42.9948 99.5613 42.7873 99.2994 42.6773C99.0419 42.5706 98.5966 42.5659 97.9634 42.6631L93.5039 43.3479C92.89 43.4422 92.4821 43.5779 92.2801 43.7552C92.0787 43.9363 92.0014 44.1794 92.0482 44.4844Z" fill="#004839"/>
<path d="M101.326 47.357L101.367 48.874L96.9977 48.9915L96.9989 49.0383L101.415 50.6546L101.456 52.1658L96.7122 50.3649L91.4573 52.6514L91.4137 51.029L96.1262 49.0618L96.1249 49.0149L91.363 49.1429L91.3222 47.6259L101.326 47.357Z" fill="#004839"/>
<path d="M101.329 53.3796L101.021 57.1933L99.8292 57.097L100.015 54.7959L97.0308 54.5548L96.8849 56.3594L95.6935 56.2632L95.8393 54.4585L92.4227 54.1824L92.2368 56.4835L91.0454 56.3872L91.3535 52.5735L101.329 53.3796Z" fill="#004839"/>
<path d="M90.6903 58.078L90.9918 56.5309L100.815 58.4456L100.513 59.9927C100.459 60.2726 100.389 60.5575 100.305 60.8475C100.22 61.1375 100.096 61.4078 99.9318 61.6583C99.7668 61.9127 99.5384 62.1249 99.2466 62.2948C98.9586 62.4655 98.5838 62.5716 98.122 62.6129C97.6634 62.6588 97.0928 62.6152 96.4103 62.4822L93.5578 61.9262C92.8753 61.7932 92.3282 61.6189 91.9166 61.4033C91.5041 61.1916 91.1946 60.9522 90.988 60.685C90.7852 60.4187 90.6551 60.1366 90.5978 59.8389C90.5435 59.5457 90.5317 59.2489 90.5624 58.9485C90.5931 58.648 90.6357 58.3578 90.6903 58.078ZM99.3914 59.7143L91.8345 58.2413L91.7717 58.5634C91.7014 58.9238 91.7128 59.2125 91.8058 59.4296C91.898 59.6506 92.1058 59.8304 92.429 59.969C92.7514 60.1114 93.2194 60.2424 93.8328 60.362L96.7429 60.9293C97.3602 61.0496 97.8431 61.1039 98.1916 61.0923C98.5432 61.0852 98.8032 60.9966 98.9717 60.8264C99.1394 60.6601 99.2584 60.3968 99.3287 60.0364L99.3914 59.7143Z" fill="#004839"/>
<path d="M98.6072 67.2145L97.261 70.796L96.0982 70.359L96.9105 68.198L94.1517 67.161L93.5147 68.8558L92.3958 68.4352L93.0328 66.7405L88.7054 65.1139L89.2393 63.6933L98.6072 67.2145Z" fill="#004839"/>
<path d="M86.7328 69.2867C86.8424 69.0707 86.9939 68.8497 87.1874 68.6238C87.3791 68.4013 87.6326 68.2254 87.9478 68.0963C88.263 67.9671 88.6563 67.9301 89.1276 67.9852C89.6025 68.0422 90.1743 68.2403 90.8432 68.5796L94.0045 70.1835C94.541 70.4556 94.9622 70.7306 95.268 71.0084C95.5756 71.2915 95.7949 71.5671 95.9261 71.8351C96.0591 72.1084 96.1283 72.3691 96.1338 72.6172C96.1411 72.8706 96.11 73.1045 96.0406 73.3189C95.9747 73.5352 95.8994 73.7269 95.8145 73.8941C95.7332 74.0544 95.6274 74.2241 95.4971 74.4032C95.365 74.5859 95.1972 74.7483 94.9937 74.8903C94.7937 75.0342 94.5469 75.1323 94.2531 75.1847C93.9575 75.2406 93.6056 75.2264 93.1973 75.1419C92.7872 75.0609 92.3087 74.8816 91.7618 74.6041L88.6004 73.0003C87.9386 72.6645 87.4479 72.3192 87.1286 71.9645C86.8092 71.6097 86.6077 71.2644 86.5241 70.9285C86.4439 70.5944 86.4344 70.2851 86.4954 70.0007C86.5547 69.7198 86.6338 69.4818 86.7328 69.2867ZM87.7936 69.8249C87.6575 70.0931 87.6578 70.3429 87.7944 70.5743C87.9311 70.8057 88.2764 71.0619 88.8302 71.3429L92.8538 73.3842C93.4251 73.674 93.8497 73.8084 94.1276 73.7873C94.409 73.768 94.6177 73.6242 94.7538 73.356C94.8934 73.0808 94.8888 72.8222 94.74 72.5802C94.5929 72.3435 94.2336 72.0803 93.6623 71.7904L89.6388 69.7492C89.0849 69.4682 88.6742 69.3409 88.4068 69.3672C88.1376 69.3971 87.9332 69.5497 87.7936 69.8249Z" fill="#004839"/>
<path d="M83.996 73.8082C84.1326 73.6082 84.3115 73.4087 84.5326 73.2097C84.7515 73.0139 85.0256 72.8724 85.3549 72.7851C85.6841 72.6979 86.0789 72.7121 86.5392 72.8278C87.0026 72.9458 87.544 73.2163 88.1633 73.6393L91.0903 75.639C91.587 75.9784 91.9691 76.3056 92.2363 76.6207C92.5047 76.9412 92.6865 77.2428 92.7819 77.5256C92.8783 77.8138 92.9132 78.0813 92.8866 78.328C92.8609 78.5802 92.7999 78.8081 92.7033 79.0118C92.6099 79.2176 92.5104 79.398 92.4046 79.5528C92.3032 79.7012 92.1764 79.8558 92.0239 80.0166C91.8693 80.1806 91.6819 80.3198 91.4617 80.4344C91.2448 80.5511 90.9873 80.6164 90.6892 80.6304C90.3889 80.6475 90.0417 80.5878 89.6478 80.4512C89.2517 80.3177 88.8005 80.078 88.2941 79.7321L85.367 77.7324C84.7542 77.3137 84.3124 76.9078 84.0416 76.5147C83.7709 76.1216 83.6158 75.7531 83.5764 75.4092C83.5402 75.0675 83.5707 74.7596 83.6681 74.4855C83.7633 74.2146 83.8726 73.9888 83.996 73.8082ZM84.9781 74.4792C84.8084 74.7275 84.7764 74.9753 84.8819 75.2224C84.9875 75.4696 85.2966 75.7683 85.8095 76.1187L89.5348 78.6638C90.0638 79.0252 90.4674 79.2134 90.7457 79.2285C91.0272 79.2457 91.2528 79.1302 91.4225 78.8818C91.5965 78.627 91.6255 78.37 91.5092 78.1109C91.394 77.8571 91.0719 77.5495 90.5429 77.1882L86.8176 74.6431C86.3048 74.2927 85.914 74.1133 85.6454 74.1048C85.3746 74.0996 85.1522 74.2244 84.9781 74.4792Z" fill="#004839"/>
<path d="M81.2727 77.4345L82.3206 76.2571L89.7963 82.9107L88.7484 84.0881C88.5588 84.3011 88.3539 84.5108 88.1335 84.7173C87.9131 84.9238 87.6684 85.093 87.3994 85.2249C87.1277 85.3597 86.8231 85.4258 86.4854 85.4233C86.1506 85.4234 85.7741 85.3236 85.3557 85.1238C84.9377 84.9296 84.469 84.6013 83.9496 84.139L81.7787 82.2068C81.2593 81.7446 80.8774 81.3158 80.6331 80.9205C80.3861 80.5282 80.2418 80.1644 80.2002 79.8293C80.1615 79.4968 80.1933 79.1878 80.2957 78.9024C80.3984 78.6225 80.5395 78.3611 80.719 78.1183C80.8986 77.8754 81.0831 77.6475 81.2727 77.4345ZM87.9251 83.2769L82.1739 78.1581L81.9558 78.4032C81.7117 78.6775 81.5743 78.9318 81.5436 79.166C81.5104 79.4031 81.5975 79.6636 81.8049 79.9476C82.0098 80.2345 82.3456 80.5857 82.8125 81.0012L85.0272 82.9724C85.497 83.3905 85.8848 83.6834 86.1906 83.8509C86.4967 84.024 86.7656 84.0803 86.9972 84.0198C87.2263 83.9622 87.4629 83.7963 87.707 83.522L87.9251 83.2769Z" fill="#004839"/>
<path d="M83.7493 89.2042L82.583 90.071L78.4352 85.6196L77.5317 84.5317L77.4142 84.6191L78.1436 85.8363L80.8853 91.3327L79.9118 92.0562L75.4771 87.8181L74.5408 86.7546L74.4185 86.8455L75.2044 88.0208L78.3176 93.2411L77.1466 94.1114L72.3008 85.2437L73.5377 84.3244L77.0703 87.6926L78.525 89.2177L78.619 89.1478L77.5735 87.3186L75.4 82.9404L76.6227 82.0316L83.7493 89.2042Z" fill="#004839"/>
<path d="M76.1248 94.4856L74.8053 95.2352L69.862 86.5335L71.1816 85.7839L76.1248 94.4856Z" fill="#004839"/>
<path d="M71.8413 95.391L73.3029 94.7126L73.8061 95.7968L69.5118 97.7901L69.0086 96.7059L70.4648 96.0299L66.7544 88.0366L68.1309 87.3977L71.8413 95.391Z" fill="#004839"/>
<path d="M68.4094 98.1832L66.9681 98.6584L65.6561 94.6797L63.9478 95.243L65.2598 99.2217L63.8185 99.697L60.6845 90.1926L62.1257 89.7173L63.5735 94.1078L65.2818 93.5445L63.834 89.154L65.2753 88.6787L68.4094 98.1832Z" fill="#004839"/>
<path d="M59.2219 100.68L57.7172 100.878L57.1725 96.7236L55.389 96.9575L55.9336 101.111L54.4289 101.309L53.1278 91.3858L54.6325 91.1885L55.2336 95.7723L57.0171 95.5385L56.4161 90.9546L57.9208 90.7573L59.2219 100.68Z" fill="#004839"/>
<path d="M51.5275 101.368L49.8168 101.396L47.7854 91.4196L49.3087 91.3949L49.6131 93.1832L51.4645 93.1531L51.699 91.3561L53.2281 91.3313L51.5275 101.368ZM49.8074 94.3227L50.6035 99.3202L50.668 99.3192L51.3072 94.2984L49.8074 94.3227Z" fill="#004839"/>
<path d="M46.5918 101.263L45.3989 101.123L43.7399 94.3027L43.705 94.2986C43.6963 94.506 43.6908 94.7374 43.6883 94.9928C43.6815 95.2516 43.6669 95.5606 43.6443 95.9198C43.6218 96.279 43.5804 96.7146 43.5203 97.2267L43.0944 100.852L41.7559 100.695L42.9236 90.7555L44.1282 90.897L45.796 97.5413L45.8426 97.5467C45.8505 97.3117 45.859 97.0551 45.8681 96.7769C45.8772 96.4987 45.8966 96.149 45.9265 95.7277C45.9563 95.3064 46.0106 94.7602 46.0895 94.089L46.4326 91.1677L47.7595 91.3236L46.5918 101.263Z" fill="#004839"/>
<path d="M40.7912 90.2003L42.3191 90.5872L39.8625 100.289L38.3345 99.9019C38.0581 99.8319 37.7774 99.7467 37.4926 99.6464C37.2077 99.546 36.9447 99.4069 36.7037 99.229C36.4589 99.0502 36.2597 98.8104 36.1062 98.5096C35.9517 98.2125 35.8666 97.8324 35.851 97.3691C35.8306 96.9085 35.9057 96.3413 36.0764 95.6672L36.7898 92.8499C36.9605 92.1759 37.1649 91.6393 37.403 91.2402C37.6372 90.8402 37.8935 90.5444 38.1716 90.3529C38.4488 90.1653 38.7377 90.051 39.0381 90.0102C39.3338 89.9723 39.6308 89.977 39.9291 90.0243C40.2274 90.0716 40.5148 90.1303 40.7912 90.2003ZM38.6747 98.7973L40.5646 91.3337L40.2466 91.2531C39.8906 91.163 39.6017 91.1583 39.3797 91.2391C39.154 91.319 38.963 91.5164 38.8066 91.8314C38.6465 92.1455 38.4898 92.6054 38.3363 93.2113L37.6085 96.0854C37.4541 96.6951 37.3731 97.1742 37.3654 97.5229C37.353 97.8743 37.427 98.1389 37.5876 98.3165C37.7443 98.4932 38.0006 98.6266 38.3566 98.7168L38.6747 98.7973Z" fill="#004839"/>
<path d="M36.2327 93.0949L35.8074 94.2057L31.7308 92.6449L32.1561 91.5341L36.2327 93.0949Z" fill="#004839"/>
<path d="M28.8432 96.5589L27.4941 95.864C27.2892 95.7585 27.0723 95.6292 26.8436 95.4763C26.6095 95.325 26.3951 95.1398 26.2003 94.9209C26.0037 94.7054 25.8557 94.4468 25.7562 94.1451C25.6533 93.8416 25.6287 93.4884 25.6824 93.0855C25.7361 92.6826 25.898 92.2189 26.1681 91.6946L26.3291 91.382C26.6224 90.8125 26.9238 90.368 27.2334 90.0485C27.5395 89.7272 27.8453 89.5002 28.1509 89.3676C28.4547 89.2385 28.7524 89.1765 29.0441 89.1817C29.3305 89.1886 29.6017 89.2338 29.8575 89.3172C30.1115 89.4041 30.3427 89.5012 30.5511 89.6086L30.6813 89.6756L32.0764 86.9669L33.4255 87.6618L28.8432 96.5589ZM30.1038 90.6305C29.6142 90.3783 29.2022 90.3507 28.8679 90.5476C28.5301 90.7427 28.1887 91.1754 27.8435 91.8456L27.4303 92.6478C27.1584 93.1757 27.0467 93.6102 27.095 93.9515C27.1399 94.2909 27.4175 94.5921 27.928 94.855L27.9958 94.8899L30.1716 90.6654L30.1038 90.6305Z" fill="#004839"/>
<path d="M23.8086 93.7898L22.5274 92.9764L27.8914 84.5275L29.1726 85.3409L23.8086 93.7898Z" fill="#004839"/>
<path d="M25.1811 82.4318C25.3732 82.5793 25.5625 82.769 25.7489 83.0008C25.9323 83.2303 26.0584 83.5118 26.1273 83.8454C26.1961 84.179 26.16 84.5724 26.0189 85.0255C25.8755 85.4817 25.5753 86.0072 25.1186 86.6021L22.9596 89.4137C22.5932 89.8908 22.2453 90.2541 21.9159 90.5035C21.581 90.7536 21.2697 90.9185 20.9821 90.998C20.689 91.0783 20.42 91.0983 20.1751 91.058C19.9248 91.0185 19.7021 90.946 19.5072 90.8407C19.3068 90.736 19.1323 90.6266 18.9836 90.5124C18.5746 90.1984 18.3091 89.8739 18.1871 89.5389C18.0652 89.2039 18.0518 88.8685 18.147 88.5329C18.2367 88.1979 18.3994 87.8771 18.6349 87.5704C18.7657 87.4 18.901 87.2527 19.0407 87.1285C19.1749 87.005 19.3257 86.8696 19.493 86.7223L20.4225 87.436L20.1299 87.8171C19.4613 88.6877 19.3316 89.28 19.7405 89.594C19.9605 89.7629 20.2031 89.7965 20.4683 89.6948C20.7281 89.5939 21.0531 89.2893 21.4432 88.7812L24.191 85.2028C24.5693 84.7102 24.7701 84.33 24.7935 84.0623C24.8137 83.7922 24.7015 83.5632 24.4567 83.3752C24.2863 83.2444 24.0906 83.2074 23.8696 83.2643C23.6463 83.3242 23.4121 83.5138 23.1671 83.8329L22.5889 84.5858L21.534 83.7757L22.0978 83.0414C22.5855 82.4063 23.0881 82.0436 23.6056 81.9534C24.1231 81.8632 24.6482 82.0226 25.1811 82.4318Z" fill="#004839"/>
<path d="M16.3817 88.24L15.2935 87.1822L18.3404 84.048L18.3068 84.0153L14.0163 85.9406L12.9324 84.8869L17.5861 82.8653L19.7528 77.5599L20.9165 78.6912L18.9153 83.3893L18.9489 83.422L22.2694 80.0063L23.3575 81.0641L16.3817 88.24Z" fill="#004839"/>
<path d="M12.1593 83.9083L9.72194 80.9589L10.6433 80.1975L12.114 81.977L14.422 80.0697L13.2686 78.6741L14.19 77.9126L15.3434 79.3083L17.9856 77.1247L16.515 75.3452L17.4364 74.5837L19.8738 77.5331L12.1593 83.9083Z" fill="#004839"/>
<path d="M16.5154 73.1194L17.3779 74.4385L9.00185 79.9155L8.13926 78.5963C7.9832 78.3577 7.83431 78.105 7.69259 77.8383C7.55086 77.5716 7.45152 77.2912 7.39455 76.9971C7.33544 76.6997 7.35121 76.3883 7.44187 76.063C7.52925 75.7398 7.72402 75.4025 8.02618 75.0509C8.32294 74.6981 8.76229 74.3315 9.34423 73.951L11.7766 72.3605C12.3586 71.9799 12.8722 71.7234 13.3176 71.5909C13.7609 71.455 14.1497 71.4108 14.4841 71.4582C14.8152 71.5078 15.1051 71.6192 15.3538 71.7926C15.5971 71.9649 15.8125 72.1694 16 72.4062C16.1875 72.643 16.3593 72.8807 16.5154 73.1194ZM9.13742 78.0137L15.5813 73.8001L15.4018 73.5255C15.2008 73.2182 14.9913 73.0191 14.7733 72.9283C14.5531 72.8343 14.2788 72.8503 13.9505 72.9763C13.62 73.099 13.1933 73.3314 12.6702 73.6734L10.1887 75.296C9.66235 75.6402 9.27833 75.938 9.03665 76.1893C8.78957 76.4396 8.66496 76.6844 8.66283 76.9238C8.65856 77.16 8.7569 77.4317 8.95785 77.739L9.13742 78.0137Z" fill="#004839"/>
<path d="M11.9368 69.2997C11.7394 69.3844 11.5517 69.4522 11.3737 69.5031C11.1942 69.5504 10.9993 69.5916 10.7891 69.6265L10.3245 68.5443L10.7338 68.3686C11.2291 68.156 11.5773 67.9173 11.7782 67.6526C11.9755 67.3893 12.0071 67.1016 11.8731 66.7893C11.642 66.2508 11.2626 66.0949 10.7349 66.3213C10.5303 66.4092 10.3342 66.5465 10.1466 66.7333C9.95743 66.9165 9.75422 67.2056 9.53696 67.6007L8.33565 69.8379C8.1148 70.2345 7.87007 70.5755 7.60146 70.8608C7.33131 71.1426 6.99342 71.3705 6.5878 71.5446C5.97757 71.8065 5.39774 71.8322 4.84829 71.6217C4.29371 71.4092 3.87236 70.9673 3.58425 70.296C3.3516 69.754 3.26774 69.2862 3.33266 68.8928C3.394 68.5009 3.54667 68.1782 3.79068 67.9247C4.03315 67.6676 4.31053 67.472 4.62282 67.338C4.82025 67.2532 5.01025 67.1908 5.19282 67.1507C5.37027 67.1085 5.56797 67.0641 5.78594 67.0173L6.24815 68.0941L5.80664 68.2836C5.32205 68.4916 4.98186 68.729 4.78607 68.9959C4.59028 69.2627 4.55402 69.5397 4.67727 69.8269C4.78974 70.0889 4.94884 70.2565 5.15456 70.3298C5.35515 70.4009 5.57749 70.3842 5.82158 70.2794C6.02977 70.19 6.20153 70.0653 6.33685 69.9052C6.46859 69.7466 6.59569 69.5624 6.71816 69.3526L8.07935 66.8491C8.33555 66.3863 8.60462 66.003 8.88656 65.6992C9.16337 65.3933 9.51356 65.1495 9.93712 64.9677C10.5725 64.695 11.1639 64.6813 11.7113 64.9267C12.2551 65.1736 12.6718 65.6345 12.9615 66.3094C13.1988 66.8621 13.2919 67.3365 13.2408 67.7325C13.1846 68.1265 13.0353 68.452 12.7928 68.7091C12.5488 68.9626 12.2634 69.1595 11.9368 69.2997Z" fill="#004839"/>
<path d="M2.33308 66.7699L1.20548 63.1137L2.34771 62.7614L3.02807 64.9674L5.88923 64.0851L5.35565 62.3549L6.49787 62.0026L7.03146 63.7328L10.307 62.7226L9.6266 60.5165L10.7688 60.1643L11.8964 63.8205L2.33308 66.7699Z" fill="#004839"/>
<path d="M0.694924 60.6244L0.374326 58.9438L9.85463 55.2325L10.1401 56.7289L8.43049 57.3354L8.77744 59.1542L10.5881 59.0772L10.8746 60.5794L0.694924 60.6244ZM7.34109 57.7222L2.55401 59.3631L2.56608 59.4264L7.62216 59.1956L7.34109 57.7222Z" fill="#004839"/>
<path d="M7.94977 55.8225C7.73553 55.8387 7.53599 55.842 7.35116 55.8324C7.16603 55.8189 6.96833 55.7946 6.75807 55.7596L6.66956 54.5852L7.11361 54.5517C7.65115 54.5112 8.05788 54.3983 8.33379 54.2129C8.60581 54.0279 8.72905 53.766 8.70351 53.4271C8.65948 52.8428 8.35116 52.5722 7.77857 52.6154C7.55654 52.6321 7.3265 52.6984 7.08844 52.8143C6.85009 52.9263 6.5641 53.1339 6.23048 53.4372L4.36867 55.164C4.03115 55.4676 3.68908 55.7108 3.34247 55.8936C2.99556 56.0725 2.60203 56.1786 2.16187 56.2117C1.49968 56.2616 0.942837 56.0979 0.491331 55.7207C0.0356358 55.3398 -0.21966 54.7851 -0.274557 54.0567C-0.318885 53.4685 -0.246555 52.9989 -0.0575651 52.6477C0.127529 52.2969 0.37659 52.0411 0.689617 51.8804C1.00235 51.7158 1.32816 51.6208 1.66704 51.5952C1.88128 51.5791 2.08125 51.5816 2.26697 51.6029C2.4485 51.6206 2.64994 51.6426 2.8713 51.669L2.95937 52.8376L2.48026 52.8737C1.95441 52.9133 1.55562 53.0276 1.28389 53.2165C1.01217 53.4054 0.888047 53.6557 0.911533 53.9673C0.932963 54.2517 1.02911 54.4618 1.19997 54.5978C1.36664 54.7302 1.58241 54.7864 1.84728 54.7664C2.0732 54.7494 2.27613 54.6871 2.45605 54.5795C2.63208 54.4723 2.81204 54.3392 2.99594 54.1804L5.09535 52.2535C5.48777 51.8988 5.86659 51.6235 6.2318 51.4275C6.59282 51.2279 7.00315 51.1108 7.46278 51.0762C8.15223 51.0242 8.7161 51.203 9.15437 51.6127C9.58875 52.0226 9.83353 52.5937 9.88872 53.326C9.93393 53.9259 9.86818 54.4048 9.69146 54.7629C9.51056 55.1173 9.26374 55.3768 8.951 55.5414C8.63798 55.7021 8.30423 55.7958 7.94977 55.8225Z" fill="#004839"/>
<path d="M9.84781 48.3088C9.83708 48.5508 9.79019 48.8146 9.70713 49.1002C9.62425 49.382 9.46588 49.6467 9.23202 49.8944C8.99815 50.1421 8.65515 50.338 8.203 50.4822C7.74696 50.6262 7.1443 50.6816 6.39504 50.6483L2.8536 50.4912C2.25263 50.4646 1.75554 50.3878 1.36234 50.2609C0.965414 50.1299 0.651908 49.9693 0.421824 49.7793C0.188011 49.5851 0.017415 49.3762 -0.0899631 49.1524C-0.20107 48.9246 -0.269251 48.6987 -0.294506 48.4747C-0.323662 48.2506 -0.334086 48.0448 -0.325776 47.8575C-0.317813 47.678 -0.291424 47.4798 -0.246608 47.2628C-0.201619 47.0419 -0.115741 46.8248 0.011026 46.6115C0.13389 46.3979 0.318328 46.2067 0.564338 46.0378C0.810521 45.8649 1.13701 45.7328 1.54381 45.6413C1.95078 45.546 2.4606 45.5119 3.07328 45.5391L6.61472 45.6962C7.35618 45.7291 7.94553 45.8412 8.38279 46.0327C8.82005 46.2241 9.14605 46.4556 9.36079 46.7271C9.57163 46.9984 9.70789 47.2762 9.76957 47.5605C9.83143 47.8408 9.85751 48.0903 9.84781 48.3088ZM8.65953 48.2561C8.67286 47.9556 8.56955 47.7282 8.34962 47.5737C8.12969 47.4193 7.70948 47.3283 7.08899 47.3008L2.58171 47.1009C1.94171 47.0725 1.49949 47.1252 1.25503 47.259C1.00668 47.3927 0.875838 47.6097 0.862508 47.9102C0.848832 48.2185 0.95968 48.4522 1.19505 48.6112C1.42669 48.7661 1.86251 48.8578 2.50251 48.8862L7.00979 49.0862C7.63028 49.1137 8.05689 49.0603 8.28964 48.9259C8.52255 48.7877 8.64585 48.5644 8.65953 48.2561Z" fill="#004839"/>
<path d="M0.121173 43.605L0.331405 42.4223L7.23756 41.1684L7.24371 41.1337C7.03714 41.1129 6.80647 41.0937 6.5517 41.0762C6.29376 41.0541 5.98617 41.0213 5.62893 40.9776C5.27168 40.9339 4.83922 40.867 4.33156 40.7767L0.737514 40.1378L0.973385 38.811L10.8267 40.5626L10.6144 41.7567L3.8834 43.03L3.8752 43.0761C4.10937 43.0979 4.36504 43.1215 4.64221 43.147C4.91937 43.1725 5.26735 43.2125 5.68613 43.2671C6.10491 43.3217 6.64697 43.4082 7.31232 43.5264L10.2083 44.0412L9.97451 45.3566L0.121173 43.605Z" fill="#004839"/>
<path d="M1.83499 35.8834L2.34435 34.2501L12.4548 35.4451L12.0013 36.8995L10.2076 36.6286L9.65642 38.3962L11.2896 39.1817L10.8343 40.6416L1.83499 35.8834ZM9.06454 36.4562L4.06912 35.6472L4.04993 35.7088L8.61798 37.8882L9.06454 36.4562Z" fill="#004839"/>
<path d="M3.37671 31.4795L3.97747 30.0859L12.0701 33.5745L12.8889 31.6751L13.9865 32.1483L12.567 35.4413L3.37671 31.4795Z" fill="#004839"/>
<path d="M6.60703 24.9059L7.38728 23.6043L15.971 28.7497L15.1908 30.0514L6.60703 24.9059Z" fill="#004839"/>
<path d="M8.49045 21.8672L9.20695 20.9031L15.9457 22.8671L15.9666 22.8389C15.7911 22.7279 15.5934 22.6077 15.3733 22.4782C15.1524 22.3432 14.8919 22.1764 14.5918 21.9777C14.2917 21.779 13.9347 21.5258 13.5209 21.2183L10.591 19.0408L11.3949 17.9592L19.4273 23.9289L18.7038 24.9023L12.1131 23.0338L12.0852 23.0714C12.2849 23.1956 12.5031 23.3309 12.7397 23.4776C12.9763 23.6242 13.2697 23.8155 13.6199 24.0515C13.9702 24.2874 14.4165 24.607 14.9589 25.0101L17.3197 26.7647L16.5228 27.8369L8.49045 21.8672Z" fill="#004839"/>
<path d="M21.3998 22.0562C21.302 22.1573 21.1697 22.263 21.003 22.3735C20.8391 22.4812 20.6415 22.5645 20.4104 22.6236C20.1821 22.6798 19.9184 22.6855 19.6193 22.6407C19.3229 22.5931 18.9921 22.4687 18.6269 22.2675C18.2645 22.0635 17.8671 21.7523 17.4348 21.334L14.8874 18.8688C14.4551 18.4504 14.1352 18.062 13.9276 17.7036C13.7173 17.3424 13.5903 17.0129 13.5467 16.7153C13.5031 16.4121 13.5179 16.1384 13.5913 15.8941C13.6618 15.6471 13.7632 15.4299 13.8955 15.2427C14.025 15.0527 14.1563 14.889 14.2894 14.7514C14.667 14.3612 15.0346 14.119 15.3922 14.0247C15.7524 13.9277 16.0966 13.9427 16.4247 14.0699C16.7527 14.1916 17.0556 14.3869 17.3335 14.6559C17.4879 14.8053 17.6202 14.955 17.7304 15.1052C17.8378 15.2526 17.9551 15.4178 18.0824 15.6008L17.2675 16.4429L16.9222 16.1088C16.1335 15.3455 15.5313 15.1786 15.1156 15.608C14.8929 15.8382 14.8183 16.0894 14.8918 16.3617C14.9625 16.6313 15.2281 16.9888 15.6884 17.4343L18.9306 20.5718C19.3769 21.0037 19.7345 21.2465 20.0034 21.3001C20.2694 21.351 20.5138 21.2613 20.7365 21.0312C20.9702 20.7897 21.0234 20.5016 20.8964 20.1666C20.7665 19.829 20.529 19.4931 20.1837 19.159L19.2658 18.2707L18.7239 18.8307L18.0081 18.138L19.5605 16.5338L23.2027 20.0583L22.5181 20.7657L21.7177 20.2195C21.8192 20.5134 21.8507 20.8319 21.8121 21.1751C21.7736 21.5183 21.6361 21.812 21.3998 22.0562Z" fill="#004839"/>
<path d="M17.2645 12.035L18.5491 11.0051C18.7289 10.8609 18.9356 10.7128 19.1691 10.5606C19.4026 10.4085 19.6565 10.285 19.931 10.1901C20.2029 10.0922 20.4921 10.0532 20.7983 10.073C21.1021 10.0898 21.4186 10.1941 21.7476 10.3859C22.0772 10.5722 22.4118 10.8772 22.7515 11.3008L22.9091 11.4974C23.8474 12.6677 24.0989 13.7027 23.6636 14.6024L27.4515 16.6949L26.1898 17.7064L22.7734 15.6465L22.3666 15.9727L24.7086 18.8939L23.5245 19.8432L17.2645 12.035ZM21.8366 14.9932C22.2694 14.6462 22.4859 14.3074 22.4862 13.9768C22.4895 13.6437 22.281 13.215 21.8607 12.6908L21.3659 12.0737C21.0434 11.6714 20.7287 11.4381 20.4218 11.3737C20.1179 11.3069 19.7404 11.4544 19.2894 11.816L19.1339 11.9406L21.6812 15.1178L21.8366 14.9932Z" fill="#004839"/>
<path d="M22.3252 8.20688L25.5604 6.16405L26.1986 7.17473L24.2466 8.40731L25.8452 10.939L27.3761 9.97232L28.0142 10.983L26.4834 11.9497L28.3135 14.848L30.2655 13.6154L30.9037 14.6261L27.6685 16.6689L22.3252 8.20688Z" fill="#004839"/>
<path d="M32.4718 13.8921L31.0535 14.5796L26.6883 5.57394L28.1066 4.88646C28.3632 4.76208 28.6328 4.6466 28.9154 4.54001C29.198 4.43342 29.4888 4.37061 29.7878 4.35158C30.0903 4.33084 30.3971 4.38616 30.7082 4.51752C31.0176 4.64537 31.3274 4.88154 31.6376 5.22604C31.9497 5.56531 32.2573 6.04779 32.5606 6.67348L33.8283 9.2887C34.1315 9.91439 34.3205 10.4566 34.3953 10.9152C34.4735 11.3722 34.4678 11.7634 34.3782 12.089C34.2869 12.4111 34.1394 12.6845 33.9357 12.9091C33.7338 13.1285 33.5035 13.3161 33.2448 13.4718C32.9861 13.6276 32.7284 13.7677 32.4718 13.8921ZM28.5574 5.95072L31.9156 12.879L32.2109 12.7358C32.5413 12.5757 32.7654 12.3933 32.8832 12.1886C33.0046 11.9821 33.0237 11.7081 32.9405 11.3664C32.8609 11.023 32.6848 10.5701 32.4121 10.0077L31.119 7.33971C30.8446 6.77378 30.5982 6.35495 30.3797 6.08321C30.163 5.80626 29.936 5.65147 29.6988 5.61885C29.4651 5.58453 29.1831 5.64745 28.8527 5.8076L28.5574 5.95072Z" fill="#004839"/>
<path d="M32.3754 3.02259L33.7988 2.49634L37.2693 11.8832L35.8458 12.4094L32.3754 3.02259Z" fill="#004839"/>
<path d="M35.6446 1.88674L39.3309 0.861667L39.6512 2.01328L37.427 2.63178L38.2291 5.51647L39.9735 5.0314L40.2937 6.18302L38.5494 6.66808L39.4677 9.97051L41.6919 9.35201L42.0121 10.5036L38.3258 11.5287L35.6446 1.88674Z" fill="#004839"/>
<path d="M40.5862 0.614968L41.7729 0.428927L45.2059 6.55117L45.2406 6.54572C45.1931 6.34361 45.1362 6.11925 45.0698 5.87264C45.0068 5.62157 44.9377 5.32003 44.8628 4.96802C44.7878 4.616 44.7104 4.18529 44.6306 3.67589L44.0652 0.0695505L45.3966 -0.139178L46.9466 9.74787L45.7484 9.93572L42.3541 3.98533L42.3078 3.99259C42.3634 4.22111 42.4243 4.47055 42.4904 4.74092C42.5565 5.01129 42.6319 5.35335 42.7165 5.76711C42.8011 6.18087 42.8958 6.72156 43.0005 7.38919L43.456 10.2951L42.1362 10.502L40.5862 0.614968Z" fill="#004839"/>
<path d="M48.0453 0.944007L46.4352 1.00895L46.3871 -0.185388L51.1176 -0.376212L51.1658 0.818129L49.5616 0.882839L49.9168 9.68818L48.4005 9.74935L48.0453 0.944007Z" fill="#004839"/>
<path d="M51.3216 7.62162C51.3356 7.40723 51.3602 7.20919 51.3955 7.0275C51.4347 6.84607 51.4864 6.6537 51.5505 6.4504L52.7257 6.52681L52.6968 6.97119C52.6618 7.50912 52.7168 7.92763 52.8618 8.22673C53.007 8.52193 53.2492 8.68055 53.5883 8.7026C54.173 8.74062 54.484 8.47312 54.5213 7.90011C54.5357 7.67792 54.5022 7.44087 54.4207 7.18896C54.3431 6.9373 54.1775 6.62512 53.9238 6.25241L52.474 4.16762C52.2205 3.79101 52.0275 3.41832 51.8949 3.04957C51.7662 2.68107 51.7161 2.27658 51.7448 1.8361C51.7879 1.17344 52.0277 0.644918 52.4644 0.250543C52.9052 -0.147477 53.4901 -0.32279 54.219 -0.275396C54.8076 -0.237127 55.2626 -0.0998988 55.5839 0.136288C55.9054 0.368577 56.1239 0.650925 56.2393 0.983331C56.3586 1.31599 56.4072 1.65188 56.3851 1.99101C56.3712 2.2054 56.3407 2.40306 56.2937 2.58399C56.2509 2.76127 56.2009 2.95766 56.1439 3.17316L54.9745 3.09713L55.0056 2.61767C55.0398 2.09144 54.9824 1.6806 54.8333 1.38514C54.6842 1.08969 54.4537 0.931826 54.1418 0.911551C53.8573 0.893049 53.6358 0.958893 53.4772 1.10908C53.3229 1.25562 53.2371 1.46143 53.2198 1.72649C53.2051 1.95258 53.2385 2.16222 53.3199 2.3554C53.4015 2.54469 53.5081 2.74148 53.6397 2.94575L55.2544 5.29375C55.5508 5.73187 55.7705 6.14544 55.9136 6.53444C56.0608 6.9198 56.1194 7.34247 56.0895 7.80243C56.0446 8.49238 55.7888 9.02574 55.322 9.40249C54.8554 9.77535 54.2557 9.93795 53.5228 9.89031C52.9225 9.85128 52.4575 9.71926 52.1276 9.49426C51.8019 9.26562 51.5794 8.98497 51.4601 8.65231C51.3448 8.3199 51.2986 7.97634 51.3216 7.62162Z" fill="#004839"/>
<path d="M56.8538 10.2633C56.5834 10.2222 56.3796 10.0944 56.2423 9.87994C56.1094 9.6622 56.0706 9.37182 56.1257 9.0088C56.1879 8.59943 56.3136 8.31825 56.5028 8.16525C56.692 8.01225 56.9257 7.95687 57.2037 7.99912C57.4895 8.04255 57.6972 8.1709 57.8268 8.3842C57.9602 8.59808 57.9976 8.89812 57.9389 9.28431C57.8855 9.63574 57.7628 9.89762 57.5706 10.0699C57.3785 10.2422 57.1395 10.3067 56.8538 10.2633Z" fill="#004839"/>
</g>
<defs>
<clipPath id="clip0_93_118">
<rect width="101.09" height="101.04" fill="white"/>
</clipPath>
</defs>
</svg>
